<svg xmlns="http://www.w3.org/2000/svg" width="24" height="30" viewBox="0 0 24 30">
    <path fill="#FFF" fill-rule="nonzero" d="M15.943 4.517C17.062 3.32 17.818 1.657 17.611 0c-1.611.058-3.564.946-4.72 2.143-1.037 1.06-1.945 2.754-1.703 4.38 1.798.12 3.635-.81 4.755-2.006zm3.432 11.449c-.035-3.717 2.942-5.502 3.074-5.588-1.674-2.524-4.28-2.869-5.208-2.908-2.22-.233-4.327 1.344-5.454 1.344-1.122 0-2.858-1.313-4.698-1.278-2.42.04-4.65 1.449-5.893 3.682C-1.317 15.71.552 22.365 3.002 26.01c1.197 1.783 2.623 3.785 4.495 3.712 1.807-.072 2.488-1.202 4.669-1.202 2.18 0 2.792 1.202 4.7 1.166 1.942-.036 3.17-1.818 4.358-3.608 1.373-2.069 1.94-4.072 1.972-4.173-.042-.024-3.781-1.495-3.821-5.94z" opacity=".9"/>
</svg>
