<svg xmlns="http://www.w3.org/2000/svg" width="30" height="25" viewBox="0 0 30 25">
    <path fill="#FFA001" fill-rule="evenodd" d="M12.5 16.875c0 .434-.081.879-.244 1.335a3.113 3.113 0 0 1-.84 1.237A2.01 2.01 0 0 1 10 20a2.01 2.01 0 0 1-1.416-.553 3.113 3.113 0 0 1-.84-1.237 3.955 3.955 0 0 1-.244-1.335c0-.434.081-.879.244-1.335.163-.455.443-.868.84-1.237A2.01 2.01 0 0 1 10 13.75a2.01 2.01 0 0 1 1.416.553c.397.37.677.782.84 1.237.163.456.244.901.244 1.335zm11.25 0c0 .434-.081.879-.244 1.335a3.113 3.113 0 0 1-.84 1.237A2.01 2.01 0 0 1 21.25 20a2.01 2.01 0 0 1-1.416-.553 3.113 3.113 0 0 1-.84-1.237 3.955 3.955 0 0 1-.244-1.335c0-.434.081-.879.244-1.335.163-.455.443-.868.84-1.237a2.01 2.01 0 0 1 1.416-.553 2.01 2.01 0 0 1 1.416.553c.397.37.677.782.84 1.237.163.456.244.901.244 1.335zm2.5.68c0-1.404-.426-2.598-1.277-3.58-.85-.984-2.004-1.475-3.46-1.475-.506 0-1.708.123-3.608.369-.876.128-1.844.193-2.905.193-1.06 0-2.03-.065-2.905-.193-1.875-.246-3.078-.369-3.608-.369-1.456 0-2.61.491-3.46 1.474-.851.983-1.277 2.177-1.277 3.58 0 1.03.197 1.928.592 2.695.395.766.894 1.369 1.499 1.807.604.44 1.357.79 2.257 1.053.9.264 1.764.436 2.59.518.827.082 1.746.123 2.758.123h3.108c1.012 0 1.93-.041 2.757-.123a14.26 14.26 0 0 0 2.59-.518c.901-.263 1.654-.614 2.258-1.053.605-.438 1.104-1.041 1.499-1.807.395-.767.592-1.665.592-2.694zM30 13.92c0 2.45-.367 4.41-1.1 5.878a7.174 7.174 0 0 1-1.902 2.361 9.79 9.79 0 0 1-2.542 1.527c-.883.355-1.905.636-3.065.843-1.16.208-2.19.338-3.092.391a51.42 51.42 0 0 1-3.01.08c-.938 0-1.791-.018-2.56-.053-.77-.036-1.656-.11-2.66-.222a16.245 16.245 0 0 1-2.75-.533 19.173 19.173 0 0 1-2.47-.914 7.983 7.983 0 0 1-2.18-1.439 7.388 7.388 0 0 1-1.551-2.041C.373 18.342 0 16.383 0 13.92c0-2.805.817-5.149 2.452-7.03a9.456 9.456 0 0 1-.487-3.02c0-1.372.307-2.663.92-3.87 1.298 0 2.44.234 3.425.701.986.468 2.121 1.199 3.408 2.193a24.333 24.333 0 0 1 5.57-.621c1.78 0 3.462.19 5.049.568 1.262-.97 2.385-1.687 3.37-2.149C24.695.231 25.83 0 27.116 0a8.432 8.432 0 0 1 .92 3.87c0 1.03-.162 2.025-.487 2.984C29.183 8.748 30 11.104 30 13.92z"/>
</svg>
