<svg xmlns="http://www.w3.org/2000/svg" width="26" height="30" viewBox="0 0 26 30">
    <path fill="#FFF" fill-rule="evenodd" d="M10.976 6.881a.297.297 0 0 0-.26.176c-.05.106-.097.159-.141.159-.056.011-.084-.017-.084-.084 0-.134.106-.217.318-.25h.167zm1.457.235c-.045.01-.11-.026-.193-.11a.276.276 0 0 0-.293-.075c.268-.122.447-.111.536.034.033.067.017.117-.05.15zm-5.876 7.147c-.045-.01-.078.006-.1.05a1.366 1.366 0 0 0-.076.21.99.99 0 0 1-.092.226c-.033.056-.09.128-.167.217-.112.123-.117.19-.017.201.045.012.114-.028.21-.117a.84.84 0 0 0 .209-.301c.01-.034.022-.073.033-.117a.519.519 0 0 1 .034-.1.36.36 0 0 0 .033-.142v-.051a.057.057 0 0 0-.017-.042.195.195 0 0 0-.05-.034zm14.313 6.01c0-.2-.307-.435-.921-.703l.125-.46c.04-.14.067-.285.084-.436.017-.15.034-.27.05-.36.017-.089.02-.214.009-.376a5.86 5.86 0 0 1-.017-.327c0-.055-.02-.178-.059-.368a9.056 9.056 0 0 1-.067-.343c-.005-.04-.033-.179-.083-.419l-.092-.443c-.112-.536-.374-1.11-.787-1.724-.413-.614-.815-1.033-1.205-1.256.267.223.586.686.954 1.39.97 1.807 1.272 3.359.904 4.653-.123.447-.402.681-.837.703-.346.045-.561-.058-.645-.31-.083-.25-.128-.716-.134-1.397a8.041 8.041 0 0 0-.192-1.791c-.1-.436-.21-.82-.327-1.155a4.65 4.65 0 0 0-.326-.762c-.1-.173-.187-.31-.26-.41a1.677 1.677 0 0 0-.217-.251 7.852 7.852 0 0 1-.126-.117c-.156-.692-.329-1.267-.519-1.725-.19-.457-.354-.77-.493-.937a4.642 4.642 0 0 1-.394-.552 1.935 1.935 0 0 1-.25-.67c-.046-.234-.012-.533.1-.896.111-.362.136-.639.075-.828-.061-.19-.31-.33-.745-.419-.167-.033-.416-.134-.745-.301-.33-.167-.527-.257-.594-.268-.09-.011-.15-.156-.184-.435a1.658 1.658 0 0 1 .134-.854c.122-.29.323-.44.602-.452.413-.033.698.134.854.502.156.369.179.692.067.971-.123.212-.134.36-.034.444.1.084.268.086.503.008.145-.044.217-.245.217-.602v-.62a3.737 3.737 0 0 0-.226-.837 1.333 1.333 0 0 0-.351-.51 1.53 1.53 0 0 0-.394-.251 2.352 2.352 0 0 0-.452-.126c-1.194.09-1.69.837-1.49 2.243 0 .168-.005.251-.016.251-.1-.1-.265-.159-.494-.176a2.49 2.49 0 0 0-.552.009c-.14.022-.226-.006-.26-.084.011-.636-.078-1.138-.268-1.506-.19-.369-.44-.558-.753-.57-.301-.01-.533.143-.695.46-.162.319-.254.65-.276.997-.011.167.008.374.059.62.05.245.122.454.217.627s.182.248.26.226a.454.454 0 0 0 .268-.234c.044-.1.005-.146-.118-.134-.078 0-.164-.081-.26-.243a1.218 1.218 0 0 1-.158-.56c-.011-.246.039-.453.15-.62.112-.168.302-.246.57-.235.19 0 .34.118.452.352.111.234.164.452.159.653-.006.2-.014.323-.025.368-.246.167-.419.33-.52.485-.089.134-.242.266-.46.394a5.824 5.824 0 0 0-.343.21c-.145.155-.231.306-.26.451-.027.145.015.246.126.301.156.09.296.198.419.327.122.128.212.234.268.318.055.084.159.156.31.217.15.062.348.098.593.11.525.022 1.094-.062 1.708-.252.022-.011.15-.05.385-.117.234-.067.427-.126.577-.176.151-.05.316-.123.494-.217.179-.095.296-.193.352-.293.1-.157.212-.201.335-.134.055.033.092.08.108.142.017.061 0 .128-.05.2-.05.073-.142.126-.276.16a9.92 9.92 0 0 0-.946.36c-.407.173-.661.282-.761.326-.491.212-.882.34-1.172.385-.28.056-.72.045-1.323-.033-.111-.022-.161-.011-.15.033.01.045.106.151.284.318.28.257.653.38 1.122.369.19-.012.39-.05.602-.118.212-.066.413-.145.603-.234.19-.09.377-.187.56-.293.185-.106.352-.2.503-.284.15-.084.287-.151.41-.201.123-.05.22-.064.293-.042.073.022.12.084.142.184a.206.206 0 0 1-.016.075.221.221 0 0 1-.067.084 1.177 1.177 0 0 1-.243.16 1.868 1.868 0 0 1-.15.074 2.28 2.28 0 0 0-.168.084c-.073.04-.126.064-.16.075-.312.157-.688.402-1.129.737-.44.335-.812.575-1.113.72-.302.145-.575.15-.82.017-.235-.123-.586-.53-1.055-1.222-.246-.346-.385-.47-.419-.369a.587.587 0 0 0-.016.168c0 .279-.084.594-.251.945-.168.352-.332.662-.494.93a2.93 2.93 0 0 0-.352.97c-.072.38-.008.731.193 1.055-.257.067-.606.57-1.047 1.507-.44.937-.705 1.724-.795 2.36-.022.2-.03.586-.025 1.155.006.57-.025.898-.092.988-.09.267-.25.284-.485.05-.357-.346-.558-.87-.603-1.574-.022-.312 0-.625.067-.937.045-.212.04-.313-.017-.301-.022.01-.044.039-.067.083-.401.726-.346 1.652.168 2.779.056.134.195.29.418.469.223.178.357.29.402.335.223.256.803.761 1.74 1.515.938.753 1.457 1.18 1.558 1.28.178.167.276.38.293.636.016.257-.062.497-.235.72-.173.223-.427.352-.761.385.089.167.25.416.485.745.234.33.39.63.469.904.078.273.117.667.117 1.18.513-.268.552-.781.117-1.54a1.47 1.47 0 0 0-.176-.268 7.277 7.277 0 0 1-.159-.2c-.033-.045-.044-.079-.033-.101.033-.056.106-.109.218-.16.111-.05.223-.035.334.043.514.58 1.44.78 2.78.602 1.483-.167 2.471-.653 2.962-1.456.257-.424.446-.592.57-.502.133.067.189.357.167.87-.012.28-.14.793-.385 1.54-.1.257-.134.466-.1.628.033.162.167.248.4.26.034-.213.115-.642.244-1.29.128-.647.203-1.149.226-1.506.022-.234-.014-.645-.11-1.23a8.947 8.947 0 0 1-.125-1.624c.011-.497.14-.89.385-1.18.168-.201.452-.302.854-.302.011-.413.204-.708.578-.887a2.081 2.081 0 0 1 1.213-.176c.435.062.77.187 1.005.377zM10.357 6.429a.878.878 0 0 0-.042-.502c-.061-.145-.125-.229-.192-.251-.1-.022-.151.017-.151.117.022.056.05.09.084.1.111 0 .15.084.117.252-.034.223.011.334.134.334.033 0 .05-.016.05-.05zm7.014 3.298a.339.339 0 0 0-.109-.193.493.493 0 0 0-.217-.083.7.7 0 0 1-.402-.226 4.939 4.939 0 0 1-.21-.243.344.344 0 0 0-.066-.067c-.012-.006-.034.003-.067.025-.157.179-.118.421.117.728.234.307.452.483.653.528.1.01.181-.034.242-.134.062-.1.081-.212.059-.335zm-2.98-3.566a.632.632 0 0 0-.083-.326.627.627 0 0 0-.185-.21c-.067-.044-.117-.06-.15-.05-.067 0-.112.012-.134.034-.022.022-.022.045 0 .067a.21.21 0 0 0 .084.05c.156.045.256.218.3.519 0 .034.046.022.135-.033.022-.023.033-.04.033-.05zm.904-3.9c0-.022-.014-.05-.042-.084a.639.639 0 0 0-.15-.117 5.746 5.746 0 0 1-.16-.1c-.167-.168-.3-.251-.401-.251-.1.01-.165.053-.193.125a.365.365 0 0 0-.016.218.38.38 0 0 1-.009.209.537.537 0 0 1-.1.176.827.827 0 0 0-.1.15c-.012.028.005.076.05.143.044.033.089.033.134 0 .044-.034.106-.084.184-.151a.836.836 0 0 1 .25-.15c.012-.012.062-.017.151-.017a.91.91 0 0 0 .252-.034c.078-.022.128-.061.15-.117zm9.458 22.448c.223.134.396.27.52.41.122.14.189.274.2.402a.957.957 0 0 1-.042.377.88.88 0 0 1-.26.368 4.862 4.862 0 0 1-.393.326 4.302 4.302 0 0 1-.502.31 19.14 19.14 0 0 1-1.063.536c-.212.1-.363.173-.452.217-.424.212-.901.525-1.431.938-.53.413-.951.77-1.264 1.071-.19.179-.57.287-1.138.326-.57.04-1.066-.041-1.49-.242-.2-.1-.366-.232-.494-.394a2.154 2.154 0 0 1-.276-.427c-.056-.122-.179-.231-.368-.326-.19-.095-.452-.148-.787-.159-.491-.011-1.217-.017-2.176-.017-.212 0-.53.009-.954.025-.425.017-.748.031-.971.042a3.842 3.842 0 0 0-1.331.251c-.396.157-.695.324-.896.503-.2.178-.443.337-.728.477-.285.14-.583.203-.896.192-.323-.011-.943-.184-1.858-.519-.915-.335-1.73-.575-2.444-.72a24.471 24.471 0 0 0-.853-.159 41.396 41.396 0 0 1-.837-.15c-.201-.04-.422-.092-.662-.16a1.83 1.83 0 0 1-.56-.242.822.822 0 0 1-.285-.326c-.112-.257-.073-.628.117-1.114.19-.485.29-.79.301-.912a2.596 2.596 0 0 0-.066-.67 12.62 12.62 0 0 0-.168-.711 2.108 2.108 0 0 1-.075-.611c.005-.2.064-.352.176-.452.156-.134.474-.212.954-.234.48-.023.814-.09 1.004-.201.335-.201.57-.396.703-.586.134-.19.201-.474.201-.854.234.815.056 1.406-.536 1.775-.357.223-.82.306-1.389.25-.38-.033-.62.023-.72.168-.145.167-.117.485.084.954.022.067.067.168.134.302.067.133.114.234.142.3.028.068.053.163.075.285.023.123.028.246.017.369 0 .167-.095.44-.284.82-.19.38-.268.647-.235.803.034.19.24.335.62.436.223.067.694.17 1.414.31.72.139 1.275.253 1.666.343.268.067.68.19 1.238.368.558.178 1.019.307 1.382.385.362.078.672.1.929.067.48-.067.84-.223 1.08-.469.24-.245.368-.513.384-.803a3.044 3.044 0 0 0-.125-.98 4.707 4.707 0 0 0-.318-.87 12.063 12.063 0 0 0-.335-.611c-1.35-2.12-2.293-3.47-2.83-4.051-.758-.826-1.389-1.05-1.89-.67-.123.1-.207.017-.252-.25a2.805 2.805 0 0 1-.033-.637c.01-.324.067-.614.167-.87.1-.257.234-.52.402-.787.167-.268.29-.502.368-.703.09-.235.237-.636.444-1.206.206-.569.37-1.004.494-1.305.122-.302.29-.642.502-1.021.212-.38.43-.681.653-.904 1.227-1.596 1.92-2.684 2.075-3.265-.134-1.25-.223-2.98-.267-5.189-.023-1.004.111-1.85.401-2.536.29-.686.882-1.27 1.775-1.75.435-.234 1.015-.35 1.74-.35a6.247 6.247 0 0 1 1.775.225c.592.162 1.088.393 1.49.695.636.468 1.147 1.146 1.532 2.034.385.887.55 1.71.493 2.469-.055 1.06.112 2.254.503 3.582.379 1.261 1.121 2.478 2.226 3.65.614.658 1.169 1.567 1.666 2.728.496 1.16.828 2.226.996 3.197.089.547.117 1.019.083 1.415-.033.396-.1.706-.2.929-.101.223-.213.346-.335.368-.112.022-.243.128-.394.318-.15.19-.301.388-.452.594-.15.207-.376.394-.678.561a1.945 1.945 0 0 1-1.02.235 2.32 2.32 0 0 1-.528-.084.834.834 0 0 1-.377-.226 3.173 3.173 0 0 1-.226-.26 2.263 2.263 0 0 1-.192-.343 6.48 6.48 0 0 1-.15-.326c-.246-.413-.475-.58-.687-.502-.212.078-.369.351-.469.82-.1.469-.061 1.01.117 1.624.223.78.229 1.869.017 3.264-.112.725-.011 1.286.301 1.682.313.396.72.58 1.222.553.502-.028.977-.226 1.423-.595.659-.546 1.158-.917 1.498-1.113.34-.195.918-.432 1.733-.711.591-.201 1.021-.405 1.289-.611.268-.207.371-.4.31-.578-.062-.178-.201-.337-.419-.477a4.07 4.07 0 0 0-.862-.393c-.368-.123-.644-.39-.829-.804a2.682 2.682 0 0 1-.25-1.213c.016-.397.103-.662.259-.795.01.345.056.66.134.945.078.285.159.51.242.678.084.168.199.327.344.477.145.151.262.257.351.318.09.062.21.134.36.218.15.084.243.137.276.159z" opacity=".9"/>
</svg>
