<svg xmlns="http://www.w3.org/2000/svg" width="19" height="30" viewBox="0 0 19 30">
    <path fill="#FFA001" fill-rule="evenodd" d="M15.938 0c.78 0 1.445.273 1.992.82.547.547.82 1.211.82 1.993v24.375c0 .78-.273 1.445-.82 1.992-.547.547-1.211.82-1.992.82H2.812a2.712 2.712 0 0 1-1.992-.82A2.712 2.712 0 0 1 0 27.188V2.813C0 2.03.273 1.367.82.82A2.712 2.712 0 0 1 2.813 0h13.124zM9.375 28.125c.508 0 .947-.186 1.318-.557.371-.37.557-.81.557-1.318s-.186-.947-.557-1.318a1.802 1.802 0 0 0-1.318-.557c-.508 0-.947.186-1.318.557-.371.37-.557.81-.557 1.318s.186.947.557 1.318c.37.371.81.557 1.318.557zm6.563-6.328V3.516a.678.678 0 0 0-.206-.498.678.678 0 0 0-.498-.205H3.516a.678.678 0 0 0-.498.205.678.678 0 0 0-.205.498v18.28c0 .196.068.362.205.499a.678.678 0 0 0 .498.205h11.718a.678.678 0 0 0 .498-.205.678.678 0 0 0 .206-.498z"/>
</svg>
