<?xml version="1.0" encoding="UTF-8"?>
<svg width="70px" height="35px" viewBox="0 0 70 35" version="1.1" xmlns="http://www.w3.org/2000/svg" xmlns:xlink="http://www.w3.org/1999/xlink">
    <!-- Generator: Sketch 46.2 (44496) - http://www.bohemiancoding.com/sketch -->
    <title>Github</title>
    <desc>Created with Sketch.</desc>
    <defs></defs>
    <g id="TEZOS" stroke="none" stroke-width="1" fill="none" fill-rule="evenodd">
        <g id="Dashboard---Contribution-2" transform="translate(-545.000000, -1601.000000)">
            <g id="Socials" transform="translate(399.000000, 1601.000000)">
                <g id="Github" transform="translate(146.000000, 0.000000)">
                    <rect id="Button" stroke="#6C6B6F" x="0.5" y="0.5" width="69" height="34"></rect>
                    <path d="M38.78125,26.0803571 L36.3705357,26.0803571 L33.9598214,26.0803571 C33.9598214,26.0803571 33.9598214,24.6339286 33.9598214,23.6696429 C30.6450893,24.3928571 29.7410714,21.8616071 29.7410714,21.8616071 C29.1383929,20.65625 28.5357143,20.0535714 28.5357143,20.0535714 C27.3303571,19.3303571 28.5357143,19.4508929 28.5357143,19.4508929 C29.7410714,19.4508929 30.34375,20.65625 30.34375,20.65625 C31.4285714,22.4642857 33.296875,22.1629464 33.9598214,21.8616071 C33.9598214,21.2589286 34.2008929,20.3549107 34.5625,20.0535714 C31.9107143,19.7522321 29.7410714,18.2455357 29.7410714,15.2321429 C29.7410714,12.21875 30.34375,11.6160714 30.9464286,11.0133929 C30.8258929,10.7120536 30.34375,9.62723214 30.9464286,8 C30.9464286,8 32.1517857,8 33.3571429,9.80803571 C33.9598214,9.20535714 35.7678571,9.20535714 36.3705357,9.20535714 C36.9732143,9.20535714 38.78125,9.20535714 39.3839286,9.80803571 C40.5892857,8 41.7946429,8 41.7946429,8 C42.4575893,9.62723214 41.9151786,10.7120536 41.7946429,11.0133929 C42.3973214,11.6160714 43,12.21875 43,15.2321429 C43,18.2455357 40.8303571,19.7522321 38.1785714,20.0535714 C38.5401786,20.3549107 38.78125,21.3794643 38.78125,21.8616071 L38.78125,26.0803571 L38.78125,26.0803571 Z" fill="#FFFFFF" fill-rule="nonzero"></path>
                </g>
            </g>
        </g>
    </g>
</svg>