<svg xmlns="http://www.w3.org/2000/svg" width="70" height="35" viewBox="0 0 70 35">
    <g fill="none" fill-rule="evenodd">
        <path stroke="#6C6B6F" d="M.5.5h69v34H.5z"/>
        <path fill="#FFF" d="M39.483 23.504c-1.496.79-2.878 1.173-4.227 1.173-1.349 0-2.732-.383-4.227-1.173-.229-.12-.337-.451-.24-.739.098-.287.359-.422.59-.301 2.764 1.46 4.99 1.46 7.754 0 .23-.12.493.014.59.301.097.288-.011.619-.24.74m-7.604-5.602a1.129 1.129 0 0 1 0 2.258 1.129 1.129 0 0 1 0-2.258m5.628 0a1.129 1.129 0 0 1 0 2.258 1.129 1.129 0 0 1 0-2.258m7.88-.878c0-1.452-1.2-2.634-2.674-2.634-.968 0-1.84.521-2.308 1.333-1.44-.774-3.268-1.255-5.266-1.318v-3.437l4.912.907c.065.912.83 1.637 1.771 1.637.982 0 1.782-.788 1.782-1.757 0-.968-.8-1.756-1.782-1.756-.712 0-1.323.416-1.608 1.012l-5.44-1.004a.457.457 0 0 0-.366.093.439.439 0 0 0-.16.338v3.967c-2 .063-3.826.544-5.267 1.318a2.666 2.666 0 0 0-2.308-1.333C25.2 14.39 24 15.573 24 17.025c0 1.139.758 2.137 1.828 2.49-.03.192-.046.386-.046.584 0 3.147 3.998 5.707 8.911 5.707 4.913 0 8.911-2.56 8.911-5.707 0-.198-.016-.392-.046-.584 1.07-.353 1.828-1.351 1.828-2.49"/>
    </g>
</svg>
