<?xml version="1.0" encoding="UTF-8"?>
<svg width="70px" height="35px" viewBox="0 0 70 35" version="1.1" xmlns="http://www.w3.org/2000/svg" xmlns:xlink="http://www.w3.org/1999/xlink">
    <!-- Generator: Sketch 46.2 (44496) - http://www.bohemiancoding.com/sketch -->
    <title>Twitter</title>
    <desc>Created with Sketch.</desc>
    <defs></defs>
    <g id="TEZOS" stroke="none" stroke-width="1" fill="none" fill-rule="evenodd">
        <g id="Dashboard---Contribution-2" transform="translate(-472.000000, -1601.000000)">
            <g id="Socials" transform="translate(399.000000, 1601.000000)">
                <g id="Twitter" transform="translate(73.000000, 0.000000)">
                    <rect id="Button" stroke="#6C6B6F" x="0.5" y="0.5" width="69" height="34"></rect>
                    <path d="M44,12.6286126 C43.3376809,12.9053478 42.6256664,13.0901244 41.8793793,13.1743482 C42.6419459,12.7446351 43.2271516,12.0639696 43.5030465,11.2543901 C42.7884615,11.651445 41.9984768,11.9402122 41.157083,12.0966278 C40.4844821,11.4211188 39.5239909,11 38.4623953,11 C36.4231721,11 34.7686596,12.5547019 34.7686596,14.4712223 C34.7686596,14.7436604 34.8012186,15.0092231 34.864623,15.2627538 C31.7955065,15.1175108 29.0742574,13.7355535 27.2526657,11.6359754 C26.9347867,12.1490528 26.7531417,12.7446351 26.7531417,13.3814699 C26.7531417,14.5846665 27.405179,15.6486361 28.3956588,16.2708607 C27.7907464,16.2519533 27.2218203,16.0963972 26.7231531,15.835991 L26.7231531,15.8806812 C26.7231531,17.5625782 27.9955255,18.9651617 29.6851676,19.2840088 C29.3758568,19.363076 29.0485529,19.4043285 28.7126809,19.4043285 C28.4744859,19.4043285 28.2431455,19.3837022 28.0178027,19.3441686 C28.4873382,20.7218288 29.8513899,21.726498 31.4673458,21.754859 C30.2035415,22.6856176 28.6115765,23.2399474 26.8808073,23.2399474 C26.5826352,23.2399474 26.2887471,23.2236183 26,23.1918196 C27.633949,24.1758625 29.575495,24.7516781 31.6609863,24.7516781 C38.4538271,24.7516781 42.1681264,19.4610506 42.1681264,14.8742931 C42.1681264,14.7230341 42.1638423,14.5743534 42.1569878,14.4248133 C42.8784273,13.9349404 43.5047601,13.3238883 44,12.6286126 L44,12.6286126 Z" fill="#FFFFFF"></path>
                </g>
            </g>
        </g>
    </g>
</svg>