<svg xmlns="http://www.w3.org/2000/svg" width="70" height="35" viewBox="0 0 70 35">
    <g fill="none" fill-rule="evenodd">
        <path d="M0 0h70v35H0z"/>
        <path fill="#FFA001" fill-rule="nonzero" d="M37.875 25.967c2.784 0 5.045-2.268 5.06-5.036l.032-4.077-.047-.222-.134-.279-.226-.175c-.294-.23-1.782.016-2.183-.348-.284-.26-.329-.73-.415-1.365-.16-1.232-.26-1.296-.454-1.714-.7-1.483-2.602-2.597-3.909-2.751H32.06C29.276 10 27 12.271 27 15.045v5.886c0 2.768 2.276 5.036 5.06 5.036h5.815zm-5.75-11.845h2.806c.535 0 .97.435.97.963a.971.971 0 0 1-.97.965h-2.806a.97.97 0 0 1-.969-.965c0-.528.433-.963.969-.963zm-.969 6.734c0-.528.433-.96.969-.96h5.701c.532 0 .964.432.964.96 0 .522-.432.96-.964.96h-5.701a.97.97 0 0 1-.969-.96z"/>
    </g>
</svg>
