<svg xmlns="http://www.w3.org/2000/svg" width="70" height="35" viewBox="0 0 70 35">
    <g fill="none" fill-rule="evenodd">
        <path d="M0 0h70v35H0z"/>
        <path fill="#FFA001" fill-rule="nonzero" d="M38.781 26.08H33.96v-2.41c-3.315.723-4.219-1.808-4.219-1.808-.603-1.206-1.205-1.808-1.205-1.808-1.206-.724 0-.603 0-.603 1.205 0 1.808 1.205 1.808 1.205 1.085 1.808 2.953 1.507 3.616 1.206 0-.603.24-1.507.602-1.808-2.651-.302-4.82-1.808-4.82-4.822 0-3.013.602-3.616 1.204-4.219-.12-.3-.602-1.386 0-3.013 0 0 1.206 0 2.411 1.808.603-.603 2.41-.603 3.014-.603.602 0 2.41 0 3.013.603C40.589 8 41.794 8 41.794 8c.664 1.627.121 2.712 0 3.013.603.603 1.206 1.206 1.206 4.22 0 3.013-2.17 4.52-4.821 4.82.361.302.602 1.326.602 1.809v4.218z"/>
    </g>
</svg>
