<svg xmlns="http://www.w3.org/2000/svg" width="70" height="35" viewBox="0 0 70 35">
    <g fill="none" fill-rule="evenodd">
        <path d="M0 0h70v35H0z"/>
        <path fill="#FFA001" fill-rule="nonzero" d="M45 16.849h-2.09v-2.09h-1.669v2.09h-2.09v1.669h2.09v2.09h1.67v-2.09H45v-1.67zm-13.338-.421v2.594h3.633c-.281 1.571-1.641 2.707-3.633 2.707-2.202 0-3.983-1.865-3.983-4.067s1.781-4.053 3.983-4.053c.996 0 1.88.336 2.58 1.01l1.88-1.88C34.972 11.66 33.457 11 31.662 11A6.659 6.659 0 0 0 25 17.662a6.668 6.668 0 0 0 6.662 6.662c3.857 0 6.396-2.707 6.396-6.522 0-.49-.043-.953-.127-1.402 0 .028-6.269.028-6.269.028z"/>
    </g>
</svg>
