<svg xmlns="http://www.w3.org/2000/svg" width="70" height="35" viewBox="0 0 70 35">
    <g fill="none" fill-rule="evenodd">
        <path d="M0 0h70v35H0z"/>
        <path fill="#FFA001" fill-rule="nonzero" d="M37.584 10h-7.169A4.42 4.42 0 0 0 26 14.415v7.17A4.42 4.42 0 0 0 30.415 26h7.17A4.42 4.42 0 0 0 42 21.585v-7.17A4.42 4.42 0 0 0 37.584 10zm2.996 11.585a3 3 0 0 1-2.995 2.995h-7.17a3 3 0 0 1-2.995-2.995v-7.17a3 3 0 0 1 2.995-2.995h7.17a3 3 0 0 1 2.995 2.995v7.17z"/>
        <path fill="#FFA001" fill-rule="nonzero" d="M34 14c-2.206 0-4 1.794-4 4s1.794 4 4 4 4-1.794 4-4-1.794-4-4-4zm0 6.623A2.626 2.626 0 0 1 31.377 18 2.626 2.626 0 0 1 34 15.377 2.626 2.626 0 0 1 36.623 18 2.626 2.626 0 0 1 34 20.623zM38 13a1.004 1.004 0 0 0-1 1c0 .263.107.52.294.707.185.186.443.293.706.293.264 0 .52-.107.707-.293a1.004 1.004 0 0 0 0-1.415A1.004 1.004 0 0 0 38 13z"/>
    </g>
</svg>
