<svg xmlns="http://www.w3.org/2000/svg" width="70" height="35" viewBox="0 0 70 35">
    <g fill="none" fill-rule="evenodd">
        <path d="M0 0h70v35H0z"/>
        <path fill="#FFA001" d="M32.185 13.356l-4.894-2.272a.282.282 0 0 0-.118-.029.163.163 0 0 0-.126.053.209.209 0 0 0-.047.143v9.753c0 .166.13.362.29.436l4.524 2.1c.063.029.123.043.177.043.152 0 .26-.11.26-.293v-9.837a.108.108 0 0 0-.066-.097m5.734 8.14l4.395 2.04c.24.112.436 0 .436-.25V14.21l-4.831 7.288m-5.205-7.411v4.998l4.786 2.221-4.786-7.22m9.921-.753l-4.99-2.315a.18.18 0 0 0-.071-.016L37.569 11a.185.185 0 0 0-.154.078l-3.075 4.638 3.433 5.179 4.91-7.407c.036-.055.014-.127-.048-.156"/>
    </g>
</svg>
