<svg xmlns="http://www.w3.org/2000/svg" width="70" height="35" viewBox="0 0 70 35">
    <g fill="none" fill-rule="evenodd">
        <path d="M0 0h70v35H0z"/>
        <path fill="#FFA001" fill-rule="nonzero" d="M33.782 19.958c-.475 2.489-1.055 4.875-2.772 6.122-.53-3.762.778-6.588 1.386-9.587-1.036-1.744.125-5.255 2.31-4.39 2.689 1.065-2.329 6.485 1.04 7.162 3.517.707 4.953-6.102 2.772-8.317-3.151-3.197-9.173-.072-8.432 4.505.18 1.12 1.336 1.459.462 3.003-2.017-.447-2.62-2.037-2.541-4.158.124-3.47 3.118-5.901 6.121-6.237 3.798-.425 7.363 1.394 7.855 4.967.554 4.032-1.714 8.4-5.775 8.085-1.101-.085-1.563-.63-2.426-1.155z"/>
    </g>
</svg>
