<svg xmlns="http://www.w3.org/2000/svg" width="70" height="35" viewBox="0 0 70 35">
    <g fill="none" fill-rule="evenodd">
        <path d="M0 0h70v35H0z"/>
        <g fill="#FFA001" fill-rule="nonzero">
            <path d="M37.67 10.114a1.603 1.603 0 1 0-3.05.99l4.145 12.752a1.603 1.603 0 0 0 1.95.994c.85-.245 1.37-1.148 1.098-1.984l-4.144-12.752M31.247 12.2a1.603 1.603 0 0 0-3.049.991l4.145 12.752a1.603 1.603 0 0 0 1.95.994c.85-.245 1.37-1.148 1.098-1.984L31.247 12.2"/>
            <path d="M42.886 20.675a1.603 1.603 0 1 0-.99-3.049l-12.752 4.145a1.603 1.603 0 0 0-.994 1.95c.245.85 1.148 1.37 1.984 1.098l12.752-4.144"/>
            <path d="M31.801 24.277l3.048-.99-.99-3.049-3.048.991.99 3.048M40.8 14.253a1.603 1.603 0 0 0-.991-3.05L27.057 15.35a1.602 1.602 0 0 0-.994 1.95c.245.85 1.148 1.369 1.984 1.097L40.8 14.253"/>
            <path d="M29.714 17.855l3.048-.99-.99-3.049-3.049.99.991 3.049M36.136 15.768l3.049-.99-.99-3.05-3.05.992.991 3.048"/>
        </g>
    </g>
</svg>
