<svg xmlns="http://www.w3.org/2000/svg" width="70" height="35" viewBox="0 0 70 35">
    <g fill="none" fill-rule="evenodd">
        <path fill="#FFA001" d="M0 0h70v35H0z"/>
        <path fill="#FFF" d="M44 12.629a7.746 7.746 0 0 1-2.12.545 3.532 3.532 0 0 0 1.623-1.92 7.739 7.739 0 0 1-2.346.843A3.795 3.795 0 0 0 38.462 11c-2.039 0-3.693 1.555-3.693 3.471 0 .273.032.538.096.792-3.07-.145-5.79-1.527-7.612-3.627a3.298 3.298 0 0 0-.5 1.745c0 1.204.652 2.268 1.643 2.89a3.87 3.87 0 0 1-1.673-.435v.045c0 1.682 1.273 3.084 2.962 3.403a4.012 4.012 0 0 1-1.667.06c.47 1.378 1.833 2.382 3.45 2.41a7.715 7.715 0 0 1-4.587 1.486c-.298 0-.592-.016-.881-.048a10.95 10.95 0 0 0 5.661 1.56c6.793 0 10.507-5.29 10.507-9.878 0-.151-.004-.3-.011-.45A7.296 7.296 0 0 0 44 12.63z"/>
    </g>
</svg>
