<svg xmlns="http://www.w3.org/2000/svg" width="70" height="35" viewBox="0 0 70 35">
    <g fill="none" fill-rule="evenodd">
        <path d="M0 0h70v35H0z"/>
        <g fill="#FFA001" fill-rule="nonzero">
            <path d="M34.636 9.01c-4.275.203-7.649 3.763-7.636 8.043a7.993 7.993 0 0 0 .874 3.622l-.853 4.137a.312.312 0 0 0 .379.367l4.054-.96a7.99 7.99 0 0 0 3.45.837c4.37.067 8.013-3.403 8.15-7.77a8.029 8.029 0 0 0-8.418-8.277zm4.838 12.464a6.245 6.245 0 0 1-4.445 1.84 6.22 6.22 0 0 1-2.798-.655l-.565-.281-2.486.589.524-2.54-.279-.545a6.216 6.216 0 0 1-.683-2.853c0-1.68.654-3.258 1.841-4.446a6.298 6.298 0 0 1 4.446-1.84c1.679 0 3.257.653 4.445 1.84a6.245 6.245 0 0 1 1.841 4.445 6.298 6.298 0 0 1-1.841 4.446z"/>
            <path d="M38.925 18.77l-1.555-.447a.58.58 0 0 0-.574.151l-.38.388a.567.567 0 0 1-.616.13c-.736-.298-2.283-1.674-2.678-2.362a.567.567 0 0 1 .044-.628l.333-.43a.58.58 0 0 0 .071-.588l-.654-1.48a.58.58 0 0 0-.906-.208c-.434.368-.949.925-1.011 1.543-.11 1.09.357 2.463 2.124 4.113 2.041 1.905 3.676 2.157 4.74 1.899.604-.146 1.086-.733 1.39-1.213a.58.58 0 0 0-.328-.868z"/>
        </g>
    </g>
</svg>
