<svg xmlns="http://www.w3.org/2000/svg" width="70" height="35" viewBox="0 0 70 35">
    <g fill="none" fill-rule="evenodd">
        <path d="M0 0h70v35H0z"/>
        <path fill="#FFA001" fill-rule="nonzero" d="M33.174 11.845c-.768 0-1.392.625-1.392 1.393 0 .767.624 1.392 1.392 1.392.768 0 1.393-.624 1.393-1.392 0-.768-.625-1.393-1.393-1.393zm0 2.122a.73.73 0 1 1 .002-1.46.73.73 0 0 1-.002 1.46zM29.284 11.845c-.768 0-1.393.625-1.393 1.393 0 .767.625 1.392 1.393 1.392.767 0 1.392-.624 1.392-1.392 0-.768-.625-1.393-1.392-1.393zm0 2.122a.73.73 0 1 1 .001-1.46.73.73 0 0 1-.001 1.46z"/>
        <path fill="#FFA001" fill-rule="nonzero" d="M45.178 19.958c0-1.66-.741-3.204-2.088-4.347a.332.332 0 0 0-.429.506c1.196 1.015 1.854 2.379 1.854 3.841 0 1.579-.788 3.068-2.16 4.084a.332.332 0 0 0-.127.339l.359 1.616-1.704-1.022a.332.332 0 0 0-.275-.03 6.722 6.722 0 0 1-2.128.34c-3.328 0-6.035-2.39-6.035-5.327 0-2.938 2.707-5.328 6.035-5.328a6.64 6.64 0 0 1 3.097.755.332.332 0 0 0 .31-.586 7.306 7.306 0 0 0-3.407-.832h-.044c.014-.164.022-.329.022-.494 0-3.563-3.243-6.462-7.229-6.462S24 9.91 24 13.473c0 .742.14 1.47.414 2.162.07.177.282.26.453.176a.335.335 0 0 0 .164-.42 5.177 5.177 0 0 1-.368-1.918c0-3.197 2.945-5.799 6.566-5.799 3.62 0 6.566 2.602 6.566 5.8 0 .175-.01.352-.027.527-3.099.294-5.573 2.486-5.94 5.247a7.218 7.218 0 0 1-3.986-.806.332.332 0 0 0-.312 0l-1.518.81.536-1.43a.331.331 0 0 0-.084-.36 5.983 5.983 0 0 1-.837-.963.332.332 0 0 0-.545.378c.225.324.483.631.769.915l-.769 2.05c-.105.279.202.55.467.409l2.14-1.142a7.902 7.902 0 0 0 4.093.808v.041c0 3.303 3.004 5.991 6.698 5.991.75 0 1.487-.11 2.19-.328l2.237 1.342c.246.147.556-.079.495-.356l-.481-2.164c1.437-1.138 2.257-2.761 2.257-4.485z"/>
        <path fill="#FFA001" fill-rule="nonzero" d="M36.358 18.565c-.768 0-1.393.625-1.393 1.393s.625 1.393 1.393 1.393 1.392-.625 1.392-1.393-.624-1.393-1.392-1.393zm0 2.123a.73.73 0 1 1 .001-1.461.73.73 0 0 1-.001 1.46zM40.602 18.565c-.768 0-1.393.625-1.393 1.393s.625 1.393 1.393 1.393 1.393-.625 1.393-1.393-.625-1.393-1.393-1.393zm0 2.123a.73.73 0 1 1 .002-1.461.73.73 0 0 1-.002 1.46z"/>
    </g>
</svg>
