<svg xmlns="http://www.w3.org/2000/svg" width="70" height="35" viewBox="0 0 70 35">
    <g fill="none" fill-rule="evenodd">
        <path d="M0 0h70v35H0z"/>
        <path fill="#FFA001" fill-rule="nonzero" d="M43.687 13.054c.4 1.474.413 4.53.413 4.53s0 3.07-.4 4.531c-.219.81-.983 1.474-1.807 1.692-1.492.386-7.349.362-7.349.362s-5.857.036-7.348-.362c-.813-.218-1.613-.882-1.831-1.692-.4-1.474-.364-4.53-.364-4.53s-.037-3.057.364-4.53c.218-.81 1.006-1.475 1.83-1.692 1.492-.387 7.35-.363 7.35-.363s5.965 0 7.457.387a2.37 2.37 0 0 1 1.685 1.667zm-10.784 7.824l4.61-2.964-4.61-2.963v5.927z"/>
    </g>
</svg>
