<svg xmlns="http://www.w3.org/2000/svg" width="74" height="80" viewBox="0 0 74 80">
    <g fill="none" fill-rule="nonzero">
        <path fill="#FFA001" d="M68 64H16c-3.3 0-6-2.7-6-6V6c0-3.3 2.7-6 6-6h52c3.3 0 6 2.7 6 6v52c0 3.3-2.7 6-6 6z"/>
        <path fill="#233D4E" d="M57.801 36.202c.172-4.619.344-9.922 0-15.91C57.286 10.027 34.244 9 29.086 9h-.172C23.756 9.171.714 10.198.199 20.292c-.344 5.988-.172 11.291 0 15.91 0 2.225.171 4.449.171 6.33v1.198c0 .513 0 1.027.172 1.54 1.204 14.2 10.833 30.453 28.028 34.559l.516.171.516-.171c17.195-4.106 26.824-20.36 28.028-34.56 0-.512.171-1.026.171-1.539v-1.197c-.171-1.882 0-3.935 0-6.33zM4.325 20.634c.172-4.962 14.616-7.528 24.933-7.7 10.317.172 24.589 2.738 24.933 7.7.343 5.817.171 10.95 0 15.568 0 2.225-.172 4.449-.172 6.502 0 .855 0 1.54-.172 2.395-.516 4.106-4.127 7.185-8.426 7.185-4.642 0-8.425-3.764-8.425-8.383h-3.783v4.448c0 2.224-1.72 3.935-3.955 3.935-2.235 0-3.955-1.71-3.955-3.935v-4.448H21.52c0 4.62-3.783 8.383-8.425 8.383-4.299 0-7.738-3.08-8.426-7.185 0-.856-.172-1.54-.172-2.395 0-1.882 0-4.106-.172-6.502-.172-4.619-.344-9.751 0-15.568zm40.752 35.414c-1.031 1.711-1.891 3.08-2.407 3.25-1.376.685-6.19.685-7.91 0-.516-.341-1.891-1.881-3.267-3.592 2.064-.684 3.611-2.053 4.643-3.935 2.235 2.566 5.33 4.106 8.941 4.277zm-18.226-.342c-1.376 1.71-2.752 3.25-3.267 3.593-1.72.855-6.363.855-7.91 0-.516-.342-1.376-1.54-2.407-3.25 3.61-.172 6.706-1.712 8.77-4.278 1.203 1.882 2.75 3.25 4.814 3.935zm4.298 19.846V64.773h-3.783v10.779C16.878 72.13 9.828 63.405 6.733 54.166l2.063 1.027c1.032 2.053 3.439 6.33 5.502 7.527 1.376.685 3.44 1.027 5.503 1.027 2.235 0 4.47-.342 5.846-.855 1.204-.514 2.751-2.225 3.955-3.764 1.203 1.54 2.751 3.25 3.955 3.764 2.579 1.197 8.597 1.368 11.176 0 2.064-1.027 4.471-5.475 5.503-7.528.687-.171 1.203-.513 1.72-.856-3.44 8.897-10.49 17.622-20.807 21.044z"/>
        <path fill="#233D4E" d="M14.5 22.607c3.615 0 6.713 2.786 6.713 6.393H25c0-5.574-4.82-10-10.5-10S4 23.59 4 29h3.787c0-3.443 3.098-6.393 6.713-6.393zM43.5 22.607c3.615 0 6.713 2.786 6.713 6.393H54c0-5.574-4.82-10-10.5-10C37.648 19 33 23.59 33 29h3.787c0-3.443 2.926-6.393 6.713-6.393zM10 35a9.6 9.6 0 0 0 7 3 9.6 9.6 0 0 0 7-3 9.6 9.6 0 0 0-7-3 9.6 9.6 0 0 0-7 3zM34 35a9.6 9.6 0 0 0 7 3 9.6 9.6 0 0 0 7-3 9.6 9.6 0 0 0-7-3 9.6 9.6 0 0 0-7 3z"/>
    </g>
</svg>
