<svg xmlns="http://www.w3.org/2000/svg" width="158" height="157" viewBox="0 0 158 157">
    <g fill="none" fill-rule="evenodd">
        <path fill="#FFA000" fill-rule="nonzero" d="M78.812.004c21.677 0 41.303 8.787 55.509 22.994 14.206 14.206 22.993 33.832 22.993 55.509s-8.787 41.302-22.993 55.509c-14.207 14.206-33.832 22.993-55.51 22.993-21.676 0-41.302-8.787-55.508-22.993C9.096 119.809.309 100.184.309 78.506c0-21.676 8.787-41.302 22.994-55.508C37.509 8.79 57.135.004 78.812.004zm45.28 33.222C112.506 21.638 96.497 14.47 78.813 14.47s-33.693 7.167-45.28 18.755c-11.589 11.588-18.756 27.597-18.756 45.28 0 17.685 7.167 33.694 18.755 45.282 11.588 11.587 27.597 18.755 45.28 18.755 17.685 0 33.694-7.168 45.282-18.755 11.588-11.588 18.755-27.597 18.755-45.281 0-17.684-7.167-33.693-18.755-45.281z"/>
        <circle cx="78.812" cy="78.507" r="56.803" fill="#FFA000"/>
        <path fill="#FEFEFE" d="M101.429 77.885c4.675-1.628 7.115-5.147 7.32-10.556.09-1.96-.214-3.71-.913-5.255-.7-1.545-1.752-2.854-3.158-3.928a20.157 20.157 0 0 0-4.698-2.663c-1.726-.7-3.734-1.312-6.022-1.835l1.523-11.083-6.773-.93-1.48 10.775a242.583 242.583 0 0 0-5.377-.649l1.492-10.863-6.773-.93-1.523 11.082a153.03 153.03 0 0 1-4.272-.541l-9.318-1.326-.99 7.213 4.881.671c2.229.306 3.396 1.482 3.503 3.528l-1.734 12.623c.294.04.526.087.698.141l-.704-.097-2.429 17.68c-.44 1.462-1.392 2.094-2.858 1.892l-5.985-1.626-1.366 8.817 8.796 1.208c.558.077 1.362.195 2.416.354 1.054.16 1.844.275 2.372.348l-1.54 11.214 6.774.931 1.522-11.083c1.227.2 3.014.46 5.36.782l-1.517 11.038 6.773.93 1.54-11.214c2.421.213 4.584.287 6.49.22a26.282 26.282 0 0 0 5.552-.785c1.794-.455 3.334-1.118 4.618-1.986 1.285-.869 2.41-2.044 3.375-3.525.965-1.48 1.694-3.248 2.184-5.302.943-4.022.714-7.25-.685-9.683-1.398-2.432-3.756-4.294-7.074-5.587zm-20.534-18.19a321.834 321.834 0 0 0 4.121.499c.633.07 1.478.224 2.537.46 1.058.234 1.943.476 2.656.723.713.247 1.487.6 2.319 1.057.834.458 1.48.966 1.941 1.522.462.556.824 1.233 1.088 2.031.264.798.33 1.681.196 2.648-.113.822-.346 1.551-.703 2.19a4.268 4.268 0 0 1-1.42 1.53 12.12 12.12 0 0 1-1.79.964c-.604.26-1.353.434-2.246.52-.892.087-1.67.145-2.33.173-.661.029-1.478-.001-2.452-.09-.974-.09-1.711-.16-2.212-.214a47.06 47.06 0 0 1-2.045-.281 181.57 181.57 0 0 0-1.514-.231l1.855-13.502h-.001zm14.38 32.49a6.316 6.316 0 0 1-1.32 1.613c-.508.437-1.148.797-1.918 1.08-.77.282-1.51.494-2.216.636-.707.143-1.549.235-2.525.28-.978.046-1.83.055-2.56.03a47.02 47.02 0 0 1-2.597-.177 58.504 58.504 0 0 1-2.34-.255c-.556-.077-1.26-.181-2.108-.312-.849-.131-1.39-.213-1.624-.245l2.042-14.866c.235.033.933.114 2.095.243 1.163.13 2.11.245 2.843.346.733.1 1.739.283 3.017.55 1.278.264 2.344.544 3.2.84.856.298 1.778.7 2.77 1.21.99.51 1.772 1.073 2.344 1.689.573.617 1.022 1.365 1.35 2.247.327.881.418 1.85.273 2.905-.113.822-.354 1.55-.726 2.186z"/>
        <path fill="#FEFEFE" fill-rule="nonzero" d="M75.276 82.572c-.096.7-.241 1.361-.435 1.984a11.026 11.026 0 0 1-.759 1.83c-.309.592-.648 1.133-1.018 1.621-.38.503-.805.976-1.276 1.419a12.378 12.378 0 0 1-3.127 2.145 13.665 13.665 0 0 1-2.226.864l-.487 3.542-.273 1.99-1.98-.271-6.318-.868-1.99-.273.272-1.98.438-3.189a13.966 13.966 0 0 1-1.904-1.06 8.468 8.468 0 0 1-1.58-1.368 11.486 11.486 0 0 1-1.296-1.762l-.007.004a10.751 10.751 0 0 1-1.436-3.847 12.951 12.951 0 0 1-.055-3.885l.273-1.99 1.98.271 7.814 1.074-.05-.03c-.343-.197-.85-.48-1.524-.851a16.107 16.107 0 0 1-1.76-1.122 15.7 15.7 0 0 1-1.588-1.334 10.38 10.38 0 0 1-1.442-1.724c-.417-.623-.777-1.3-1.078-2.031a8.822 8.822 0 0 1-.621-2.628c-.076-.878-.041-1.841.102-2.888.196-1.428.58-2.725 1.151-3.89a10.465 10.465 0 0 1 2.325-3.126c1.524-1.4 3.36-2.352 5.51-2.853l.45-3.283.274-1.99 1.98.272 6.317.867 1.991.274-.272 1.98-.45 3.27c.642.35 1.229.752 1.76 1.205.94.8 1.696 1.747 2.268 2.839a10.66 10.66 0 0 1 1.111 3.368c.177 1.16.169 2.37-.023 3.627h-.004l-.028.203-.274 1.99-1.978-.272-7.094-.974c.301.153.576.295.822.427.373.2.67.364.889.49l-.003.005a15.62 15.62 0 0 1 2.854 2.06 14.305 14.305 0 0 1 2.264 2.632 9.56 9.56 0 0 1 1.42 3.418c.245 1.202.276 2.475.091 3.818zm-4.265.791c.133-.428.231-.87.294-1.325.124-.903.109-1.73-.045-2.483a5.617 5.617 0 0 0-.839-2.006 10.266 10.266 0 0 0-1.62-1.895 11.62 11.62 0 0 0-2.137-1.537l-.023-.008a24.915 24.915 0 0 0-.763-.428c-.3-.16-.609-.32-.927-.48-.439-.22-.831-.438-1.177-.654a13.96 13.96 0 0 1-1.106-.772 9.015 9.015 0 0 1-1.05-.95 8.09 8.09 0 0 1-.876-1.09 4.705 4.705 0 0 1-.683-1.602 4.87 4.87 0 0 1-.055-1.714 4.818 4.818 0 0 1 .54-1.667 4.67 4.67 0 0 1 1.114-1.357 4.308 4.308 0 0 1 1.656-.868 4.573 4.573 0 0 1 1.83-.1c.74.101 1.383.323 1.929.665.628.395 1.1.929 1.416 1.602.188.4.33.82.425 1.255l3.525.484a7.168 7.168 0 0 0-.07-.689 6.678 6.678 0 0 0-.687-2.112 5.484 5.484 0 0 0-1.311-1.646c-.566-.482-1.256-.88-2.07-1.193l-1.485-.572.214-1.563.378-2.748-2.349-.322-.375 2.736-.21 1.523-1.525.196c-1.967.252-3.578.954-4.832 2.107a6.485 6.485 0 0 0-1.446 1.934c-.378.77-.636 1.66-.774 2.665a9.173 9.173 0 0 0-.072 2.024c.048.55.155 1.028.323 1.435.2.482.433.924.702 1.325.26.388.558.743.893 1.065.367.351.76.681 1.18.989.413.302.853.582 1.32.839.406.223.935.523 1.586.899.604.348 1.097.638 1.475.869.525.32 1.011.661 1.46 1.025.45.365.86.755 1.226 1.168a4.703 4.703 0 0 1 1.032 1.896 5.25 5.25 0 0 1 .123 2.126 4.835 4.835 0 0 1-.58 1.742c-.3.528-.696.99-1.19 1.389a4.6 4.6 0 0 1-1.666.865 4.566 4.566 0 0 1-1.864.117c-.787-.108-1.474-.367-2.06-.776a4.105 4.105 0 0 1-1.416-1.73 6.79 6.79 0 0 1-.459-1.42l-4.167-.572c.02.228.05.457.087.686.07.428.18.839.327 1.232.14.374.332.76.575 1.155v.016c.26.427.542.809.848 1.145.27.297.546.539.826.725.337.224.723.442 1.155.653.43.21.9.406 1.408.588l1.532.548-.222 1.61-.377 2.748 2.348.323.402-2.924.2-1.454 1.44-.257a10.04 10.04 0 0 0 2.611-.842c.389-.19.772-.415 1.148-.673.353-.242.683-.508.99-.797a7.552 7.552 0 0 0 1.494-1.972c.184-.352.343-.743.476-1.17zm-9.115-3.297l-.095.965a2.623 2.623 0 0 0 .225 1.353c.02.044.037.072.051.082.052.036.153.064.302.085a.662.662 0 0 0 .263-.008.65.65 0 0 0 .222-.127.868.868 0 0 0 .216-.243.831.831 0 0 0 .093-.298c.03-.22.026-.4-.012-.54a.745.745 0 0 0-.169-.295 6.372 6.372 0 0 0-.756-.713 7.989 7.989 0 0 0-.34-.26zm3.094-11.561l.054-.909a3.135 3.135 0 0 0-.032-.71 2.013 2.013 0 0 0-.117-.424 1.277 1.277 0 0 0-.285-.064.669.669 0 0 0-.26.006.323.323 0 0 0-.118.068.712.712 0 0 0-.172.195.835.835 0 0 0-.085.286.952.952 0 0 0 .009.333c.017.08.052.159.102.235.14.212.285.397.436.556.131.139.287.282.468.428z"/>
        <path fill="#FFA000" fill-rule="nonzero" d="M73.29 82.305c-.158 1.155-.486 2.206-.981 3.155a9.374 9.374 0 0 1-1.894 2.506 10.649 10.649 0 0 1-2.633 1.808c-.988.484-2.037.825-3.144 1.022l-.676 4.914-6.318-.868.65-4.726c-1.152-.413-2.15-.9-2.994-1.46-.845-.562-1.605-1.397-2.279-2.507a8.553 8.553 0 0 1-1.169-3.117 10.986 10.986 0 0 1-.048-3.297l8.003 1.1c-.08.815.05 1.604.39 2.366s.979 1.207 1.915 1.336a2.527 2.527 0 0 0 2.008-.559 2.76 2.76 0 0 0 1.039-1.836c.133-.967-.09-1.777-.668-2.428-.578-.652-1.322-1.255-2.23-1.809a77.737 77.737 0 0 0-2.983-1.721 13.844 13.844 0 0 1-2.925-2.142c-.87-.835-1.556-1.86-2.057-3.072-.501-1.214-.63-2.71-.385-4.488.334-2.433 1.284-4.37 2.848-5.807 1.565-1.439 3.544-2.311 5.939-2.618l.65-4.727 6.317.868-.649 4.727c2.053.79 3.533 2.051 4.44 3.781.906 1.73 1.199 3.654.876 5.77l-.032.235-7.254-.997c.049-.82-.074-1.544-.37-2.172-.295-.629-.895-1.005-1.8-1.13-.748-.102-1.392.071-1.93.522-.54.45-.858 1.034-.957 1.752-.098.718.043 1.365.425 1.942a6.502 6.502 0 0 0 1.478 1.562c.604.464 1.255.872 1.954 1.222.699.35 1.299.671 1.8.962 1.858 1.05 3.34 2.407 4.447 4.069 1.107 1.662 1.506 3.616 1.197 5.862z"/>
    </g>
</svg>
