<svg xmlns="http://www.w3.org/2000/svg" width="90" height="89" viewBox="0 0 90 89">
    <g fill="none" fill-rule="evenodd">
        <path fill="#FFA000" fill-rule="nonzero" d="M44.894.565c12.194 0 23.233 4.943 31.224 12.934 7.991 7.99 12.934 19.03 12.934 31.224 0 12.193-4.943 23.232-12.934 31.223-7.991 7.992-19.03 12.934-31.224 12.934-12.193 0-23.232-4.942-31.224-12.934C5.68 67.956.737 56.916.737 44.723c0-12.194 4.942-23.233 12.933-31.224C21.662 5.508 32.7.565 44.894.565zm25.47 18.687c-6.517-6.518-15.523-10.55-25.47-10.55s-18.952 4.032-25.47 10.55c-6.518 6.518-10.55 15.523-10.55 25.47 0 9.948 4.032 18.953 10.55 25.471 6.518 6.518 15.523 10.55 25.47 10.55s18.953-4.032 25.47-10.55c6.519-6.518 10.55-15.523 10.55-25.47 0-9.948-4.031-18.953-10.55-25.471z"/>
        <circle cx="44.894" cy="44.723" r="31.951" fill="#FFA000"/>
        <path fill="#FEFEFE" d="M57.616 44.373c2.63-.916 4.002-2.895 4.118-5.938.05-1.102-.12-2.087-.514-2.956a5.721 5.721 0 0 0-1.776-2.21 11.338 11.338 0 0 0-2.643-1.497c-.97-.394-2.1-.738-3.387-1.032l.856-6.235-3.809-.523-.833 6.061c-.66-.09-1.668-.212-3.025-.365l.84-6.11-3.81-.524-.856 6.234a86.08 86.08 0 0 1-2.404-.304l-5.24-.746-.558 4.057 2.746.378c1.253.172 1.91.833 1.97 1.984l-.975 7.1c.165.023.296.05.393.08l-.396-.054-1.367 9.944c-.247.823-.783 1.178-1.608 1.065l-3.366-.915-.769 4.96 4.948.68c.314.042.766.109 1.36.198.592.09 1.037.155 1.334.196l-.867 6.308 3.81.524.857-6.234c.69.112 1.695.258 3.014.44l-.853 6.208 3.81.524.867-6.309c1.361.12 2.578.162 3.65.124a14.784 14.784 0 0 0 3.123-.441c1.01-.256 1.876-.63 2.598-1.118.723-.488 1.355-1.15 1.898-1.982.543-.833.953-1.827 1.229-2.983.53-2.262.401-4.078-.385-5.447-.787-1.368-2.113-2.415-3.98-3.142zM46.066 34.14a181.027 181.027 0 0 0 2.318.28c.356.041.832.128 1.427.26.595.132 1.093.268 1.494.407.4.139.836.337 1.304.595.47.257.833.543 1.092.856.26.312.464.694.612 1.142.149.45.185.946.11 1.49a3.473 3.473 0 0 1-.395 1.231 2.4 2.4 0 0 1-.798.861 6.817 6.817 0 0 1-1.008.543c-.339.146-.76.244-1.263.292-.502.049-.939.081-1.31.097-.372.016-.832 0-1.38-.05-.548-.05-.962-.09-1.244-.121-.281-.03-.665-.083-1.15-.158l-.852-.13 1.043-7.595zm8.089 18.277c-.21.358-.457.66-.742.907a3.473 3.473 0 0 1-1.08.607 8.47 8.47 0 0 1-1.246.358c-.398.08-.871.132-1.42.158-.55.025-1.03.03-1.44.017-.41-.015-.897-.048-1.461-.1-.564-.053-1.003-.1-1.316-.144a72.957 72.957 0 0 1-1.186-.175c-.478-.074-.782-.12-.914-.138l1.149-8.362c.132.018.525.064 1.179.137.653.073 1.186.138 1.598.194.413.057.979.16 1.698.31.718.148 1.318.306 1.8.473.481.167 1 .393 1.557.68.557.287.997.603 1.32.95.321.347.574.768.758 1.264.185.495.236 1.04.154 1.634a3.3 3.3 0 0 1-.408 1.23z"/>
        <path fill="#FEFEFE" fill-rule="nonzero" d="M42.905 47.01a6.922 6.922 0 0 1-.244 1.115 6.505 6.505 0 0 1-1 1.941 6.364 6.364 0 0 1-.718.799 6.963 6.963 0 0 1-1.759 1.206 7.687 7.687 0 0 1-1.252.486l-.274 1.993-.154 1.12-1.113-.154-3.554-.488-1.12-.154.153-1.113.247-1.794a7.856 7.856 0 0 1-1.07-.596 4.763 4.763 0 0 1-.89-.77 6.46 6.46 0 0 1-.729-.99l-.004.002a6.047 6.047 0 0 1-.807-2.164 7.285 7.285 0 0 1-.032-2.186l.154-1.12 1.114.153 4.396.604-.029-.016c-.193-.111-.478-.27-.857-.48a9.06 9.06 0 0 1-1.883-1.38 5.839 5.839 0 0 1-.811-.97 6.509 6.509 0 0 1-.607-1.143 4.962 4.962 0 0 1-.35-1.478 7.359 7.359 0 0 1 .059-1.625c.11-.803.326-1.532.647-2.187a5.887 5.887 0 0 1 1.308-1.76c.857-.787 1.89-1.322 3.099-1.604l.253-1.846.154-1.12 1.113.153 3.554.488 1.12.154-.153 1.113-.253 1.84c.361.197.691.423.99.678.529.45.954.982 1.276 1.597.317.604.525 1.235.625 1.894.1.653.095 1.333-.013 2.04h-.002l-.016.114-.154 1.12-1.113-.153-3.99-.548a23.479 23.479 0 0 1 .962.516l-.001.003a8.786 8.786 0 0 1 1.605 1.158c.49.448.914.942 1.273 1.48.39.587.657 1.228.799 1.924.138.676.155 1.392.051 2.147zm-2.399.444c.075-.24.13-.49.165-.745.07-.508.062-.974-.025-1.397a3.16 3.16 0 0 0-.472-1.128 5.775 5.775 0 0 0-.91-1.066 6.536 6.536 0 0 0-1.203-.865l-.013-.004a14.015 14.015 0 0 0-.43-.241c-.168-.09-.342-.18-.52-.27a8.082 8.082 0 0 1-.663-.368 7.853 7.853 0 0 1-.622-.434 5.07 5.07 0 0 1-1.083-1.148 2.647 2.647 0 0 1-.384-.9 2.74 2.74 0 0 1-.031-.965 2.71 2.71 0 0 1 .304-.937c.16-.294.368-.548.626-.764.28-.233.59-.396.932-.488a2.572 2.572 0 0 1 1.029-.057 2.71 2.71 0 0 1 1.085.375c.353.222.619.522.797.9.106.226.185.462.239.707l1.983.272a3.756 3.756 0 0 0-.426-1.576 3.085 3.085 0 0 0-.738-.925 3.985 3.985 0 0 0-1.164-.671l-.836-.322.121-.88.212-1.545-1.32-.181-.212 1.539-.118.857-.858.11c-1.106.141-2.012.537-2.718 1.185-.34.312-.61.675-.813 1.088a4.903 4.903 0 0 0-.436 1.499 5.16 5.16 0 0 0-.04 1.138c.027.31.087.579.182.808.112.27.243.52.395.745.146.218.313.418.502.599a6.555 6.555 0 0 0 1.406 1.028 52.119 52.119 0 0 1 1.722.995 7.5 7.5 0 0 1 .82.576c.255.206.485.425.691.657.277.313.471.669.58 1.067.104.377.127.775.07 1.195a2.72 2.72 0 0 1-.327.98c-.168.297-.391.558-.669.782-.285.23-.598.392-.937.486a2.568 2.568 0 0 1-1.049.066 2.614 2.614 0 0 1-1.158-.436 2.31 2.31 0 0 1-.797-.973 3.82 3.82 0 0 1-.258-.8l-2.344-.321c.011.128.028.257.049.386.04.24.1.472.184.693.079.21.187.427.323.65v.008c.146.24.305.456.477.644.152.168.307.304.465.409.19.126.406.248.65.367.242.118.506.228.791.33l.862.309-.124.906-.213 1.545 1.321.182.226-1.645.113-.818.81-.144a5.648 5.648 0 0 0 1.468-.474 5.11 5.11 0 0 0 .646-.379c.199-.136.384-.285.557-.448a4.248 4.248 0 0 0 .84-1.11c.104-.197.193-.417.268-.658zM35.38 45.6l-.054.542a1.475 1.475 0 0 0 .127.762.12.12 0 0 0 .029.045c.03.02.086.037.17.048.059.008.108.007.147-.004a.365.365 0 0 0 .126-.072.488.488 0 0 0 .12-.136.468.468 0 0 0 .053-.168.775.775 0 0 0-.006-.304.42.42 0 0 0-.095-.166 3.584 3.584 0 0 0-.426-.4 4.494 4.494 0 0 0-.191-.147zm1.74-6.504l.03-.51a1.763 1.763 0 0 0-.017-.4 1.133 1.133 0 0 0-.066-.239.718.718 0 0 0-.16-.036.376.376 0 0 0-.146.004.182.182 0 0 0-.067.038.4.4 0 0 0-.097.11.47.47 0 0 0-.048.16.536.536 0 0 0 .005.188c.01.045.03.09.058.132a2.3 2.3 0 0 0 .508.553z"/>
        <path fill="#FFA000" fill-rule="nonzero" d="M41.788 46.86c-.089.649-.273 1.24-.552 1.774a5.273 5.273 0 0 1-1.065 1.41 5.99 5.99 0 0 1-1.481 1.016 6.654 6.654 0 0 1-1.769.575l-.38 2.765-3.554-.489.366-2.659a7.775 7.775 0 0 1-1.684-.82c-.476-.317-.903-.786-1.282-1.41a4.81 4.81 0 0 1-.658-1.754 6.18 6.18 0 0 1-.027-1.855l4.502.619a2.59 2.59 0 0 0 .22 1.33c.191.43.55.68 1.076.752.422.058.798-.047 1.13-.314.332-.267.527-.611.584-1.033.075-.544-.05-1-.375-1.366a5.456 5.456 0 0 0-1.255-1.017 43.727 43.727 0 0 0-1.678-.968 7.787 7.787 0 0 1-1.645-1.205 5.002 5.002 0 0 1-1.157-1.728c-.282-.682-.354-1.524-.217-2.524.189-1.37.723-2.458 1.603-3.267.88-.809 1.993-1.3 3.34-1.472l.365-2.66 3.554.49-.365 2.658c1.155.445 1.987 1.154 2.497 2.127.51.973.675 2.055.493 3.246l-.018.131-4.08-.56c.027-.461-.042-.869-.208-1.222-.166-.354-.503-.566-1.012-.636-.422-.057-.784.04-1.087.294a1.507 1.507 0 0 0-.538.985c-.055.404.025.768.24 1.093.214.324.491.617.83.878.34.262.707.49 1.1.688.393.197.73.377 1.012.541 1.045.59 1.88 1.354 2.502 2.288.622.935.847 2.035.673 3.298z"/>
    </g>
</svg>
