<svg xmlns="http://www.w3.org/2000/svg" width="83" height="76" viewBox="0 0 83 76">
    <g fill="none" fill-rule="evenodd">
        <circle cx="47.7" cy="35" r="35" fill="#FFA001" fill-rule="nonzero"/>
        <g stroke="#233D4E" stroke-linecap="round" stroke-linejoin="round" stroke-width="4">
            <path d="M67 37.3l5.7 5.7M67 48.7l5.7-5.7"/>
        </g>
        <path stroke="#233D4E" stroke-linecap="round" stroke-linejoin="round" stroke-width="4" d="M44 53.4c-1.8 1-3.8 1.6-6 1.6-6.6 0-12-5.4-12-12s5.4-12 12-12 12 5.4 12 12M32 53.5L20.1 74M27.8 72.3L20 74M18.3 66.2L20 74M7.7 48.7L2 43M7.7 37.3L2 43M48.4 72.3l7.8 1.7M57.9 66.2L56.2 74M27.8 13.7L20 12M18.3 19.8L20 12"/>
        <path stroke="#233D4E" stroke-linecap="round" stroke-linejoin="round" stroke-width="4" d="M44 53.1l.5.9 11.6 20"/>
    </g>
</svg>
