<svg xmlns="http://www.w3.org/2000/svg" width="78" height="80" viewBox="0 0 78 80">
    <g fill="none" fill-rule="nonzero">
        <path fill="#FFA001" d="M72 64H20c-3.3 0-6-2.7-6-6V6c0-3.3 2.7-6 6-6h52c3.3 0 6 2.7 6 6v52c0 3.3-2.7 6-6 6z"/>
        <path fill="#233D4E" stroke="#233D4E" stroke-linecap="round" stroke-linejoin="round" d="M31.224 9.7l-30 17.4v34.8l30 17.4 30-17.4V27.1l-30-17.4zm27.16 18.166l-19.4 10.718-7.83-4.524-7.828 4.524L4.065 27.866l27.16-15.73 27.158 15.73zm-27.23 24.29l-6.373-3.689 6.374-3.41 6.374 3.41-6.374 3.689zm7.137-4.872l-6.374-3.41v-7.796l6.374 3.69v7.516zm-7.829-3.41l-6.374 3.41v-7.517l6.374-3.689v7.796zM3.302 29.049l19.4 10.718v9.048l.347.209 7.482 4.315.07 23.107-27.298-15.73V29.05zm28.615 47.397l-.07-23.107 7.483-4.315.347-.209v-9.048L59.146 29.05v31.598l-27.229 15.8z"/>
    </g>
</svg>
