<svg xmlns="http://www.w3.org/2000/svg" width="78" height="80" viewBox="0 0 78 80">
    <g fill="none" fill-rule="evenodd">
        <circle cx="43" cy="35" r="35" fill="#FFA001" fill-rule="nonzero"/>
        <circle cx="52.378" cy="7.027" r="1.027" stroke="#233D4E" stroke-linecap="round" stroke-linejoin="round" stroke-width="4"/>
        <path fill="#233D4E" fill-rule="nonzero" d="M31.838 79.946C14.254 79.946 0 65.692 0 48.108 0 30.525 14.254 16.27 31.838 16.27c17.583 0 31.838 14.255 31.838 31.838 0 17.584-14.255 31.838-31.838 31.838zm0-3.106c15.868 0 28.732-12.864 28.732-28.732 0-15.868-12.864-28.732-28.732-28.732-15.868 0-28.732 12.864-28.732 28.732 0 15.868 12.864 28.732 28.732 28.732zM65.73 26.54c-5.672 0-10.27-4.598-10.27-10.27S60.057 6 65.73 6 76 10.598 76 16.27s-4.598 10.27-10.27 10.27zm0-3.16a7.11 7.11 0 1 0 0-14.22 7.11 7.11 0 0 0 0 14.22z"/>
        <path fill="#233D4E" fill-rule="nonzero" d="M39.318 39.143c0 .413.145.734.35.976.086.1.16.164.232.213.026.018.007.007-.045-.02a1.51 1.51 0 0 1-.125-.072c-.25-.263-.412-.633-.412-1.097zm.409-2.423c.01-.734-.189-1.26-.584-1.847a12.801 12.801 0 0 0-.57-.766c-.078-.1-.394-.496-.362-.456-.158-.2-.28-.356-.403-.516a20.013 20.013 0 0 1-2.62-4.426c-1.658-3.813-.398-6.868 2.537-8.877 1.124-.769 2.23-1.23 3.018-1.452.81-.229 1.648.264 1.87 1.101.222.837-.255 1.701-1.066 1.93a8.375 8.375 0 0 0-2.14 1.04c-1.8 1.232-2.416 2.728-1.44 4.972a16.926 16.926 0 0 0 2.227 3.76c.112.145.225.29.374.479l.368.464c.303.385.513.665.708.954 1.225 1.82 1.445 3.62.662 6.489-.358 1.31-1.843 1.444-2.576.671a5.57 5.57 0 0 0-.422-.248c-.369-.2-.8-.403-1.287-.593-3.06-1.196-6.484-1.304-10.015.384-2.764 1.321-4.266 3.765-4.41 6.525-.12 2.287.777 4.155 1.78 4.43 3.78.975 5.822 2.743 6.456 6.106.068.378.13.819.2 1.421.031.268.182 1.641.23 2.045.1.844.196 1.546.308 2.212.39 2.308.95 3.928 1.699 4.778.758.844 2.134 1.412 3.402 1.264 1.623-.19 3.09-1.465 4.222-4.232 2.498-5.6 3.628-13.968 2.061-19.143-.333-1.102.56-2.186 1.667-2.024 5.228.765 9.132.44 11.88-.539.933-.332 1.468-.636 1.655-.789a1.49 1.49 0 0 1 2.139.261c.52.682.407 1.67-.253 2.207-.452.368-1.288.844-2.548 1.292-2.794.994-6.467 1.402-11.107.948.974 5.871-.274 13.598-2.708 19.055-1.518 3.71-3.876 5.76-6.665 6.086-2.26.264-4.582-.693-5.989-2.262-1.249-1.418-1.973-3.512-2.454-6.362a47.144 47.144 0 0 1-.332-2.373c-.05-.42-.2-1.794-.23-2.047-.063-.54-.116-.923-.168-1.209-.376-1.995-1.468-2.94-4.225-3.652-2.666-.73-4.249-4.031-4.06-7.642.203-3.887 2.35-7.381 6.17-9.207 4.35-2.08 8.602-1.945 12.373-.472.222.087.431.174.628.26zM12.503 27.451c.065.041.218.15.428.324.366.303.733.667 1.075 1.086 1.636 2.007 2.087 4.416.66 7.484a39.23 39.23 0 0 1-2.4 4.428c-.03.047-1.556 2.407-1.923 3.051-1.067 1.869-1.585 3.617-1.753 6.251-.128 1.794.227 3.122 1.584 7.027.22.631.358 1.039.494 1.455 1.521 4.649 1.28 6.721-1.568 8.071-.749.355-1.088 1.294-.757 2.098.33.804 1.204 1.169 1.952.814 2.525-1.197 3.908-3.099 4.196-5.575.215-1.85-.15-3.777-1.029-6.464-.144-.44-.288-.863-.514-1.513-1.17-3.365-1.485-4.546-1.404-5.682.136-2.136.507-3.388 1.323-4.818.315-.552 1.784-2.823 1.857-2.94a42.452 42.452 0 0 0 2.59-4.78c2.007-4.312 1.3-8.083-1.08-11.004-.819-1.005-1.641-1.686-2.235-2.06-.706-.443-1.613-.188-2.026.57-.413.758-.176 1.733.53 2.177z"/>
    </g>
</svg>
