<?xml version="1.0" encoding="UTF-8"?>
<svg width="20px" height="20px" viewBox="0 0 20 20" version="1.1" xmlns="http://www.w3.org/2000/svg" xmlns:xlink="http://www.w3.org/1999/xlink">
    <!-- Generator: Sketch 46.2 (44496) - http://www.bohemiancoding.com/sketch -->
    <title>Github</title>
    <desc>Created with Sketch.</desc>
    <defs></defs>
    <g id="TEZOS" stroke="none" stroke-width="1" fill="none" fill-rule="evenodd">
        <g id="DEVELOPERS-COMMUNITY-2.0" transform="translate(-137.000000, -503.000000)" fill-rule="nonzero" fill="#181616">
            <g id="Github" transform="translate(137.000000, 503.000000)">
                <path d="M9.99983118,0.00104182822 C4.47757162,0.00104182822 0,4.59168426 0,10.2550625 C0,14.7835425 2.86495703,18.6278886 6.83943072,19.9822653 C7.33982746,20.0760299 7.52148296,19.7593141 7.52148296,19.4873969 C7.52148296,19.2443037 7.51304172,18.599412 7.50797697,17.744071 C4.72641939,18.3636116 4.13958435,16.3695523 4.13958435,16.3695523 C3.68477031,15.1849936 3.02905475,14.8703615 3.02905475,14.8703615 C2.12111492,14.2341517 3.09793527,14.2466537 3.09793527,14.2466537 C4.1017676,14.3195817 4.62951395,15.3034148 4.62951395,15.3034148 C5.52158425,16.8699772 6.96976348,16.4174764 7.54005369,16.1556303 C7.63088143,15.4926802 7.88884574,15.0408741 8.17483497,14.7845843 C5.95445107,14.5258637 3.61960394,13.6458661 3.61960394,9.71713184 C3.61960394,8.59786106 4.00958925,7.6827886 4.64909763,6.96601078 C4.5461145,6.70659555 4.20272483,5.66442005 4.74667837,4.25239553 C4.74667837,4.25239553 5.58641298,3.97665833 7.49683453,5.30464204 C8.29436294,5.07682894 9.14996708,4.96361693 10.0005065,4.95910235 C10.8496953,4.96361693 11.7056371,5.07682894 12.5041784,5.30464204 C14.413587,3.97770016 15.2512957,4.25239553 15.2512957,4.25239553 C15.7969375,5.66407278 15.4538855,6.70763738 15.3509024,6.96601078 C15.9917613,7.6827886 16.3790455,8.59820833 16.3790455,9.71713184 C16.3790455,13.6562844 14.0408218,14.5227382 11.812672,14.776597 C12.1719312,15.0933128 12.4913477,15.718757 12.4913477,16.6755026 C12.4913477,18.0458539 12.4791923,19.151581 12.4791923,19.4877442 C12.4791923,19.7620923 12.6591596,20.081239 13.166647,19.9812235 C17.1367312,18.6223322 20,14.7821534 20,10.2540207 C20,4.59029515 15.5220907,0 9.99881823,0" id="Shape"></path>
            </g>
        </g>
    </g>
</svg>