<?xml version="1.0" encoding="UTF-8"?>
<svg width="20px" height="20px" viewBox="0 0 20 20" version="1.1" xmlns="http://www.w3.org/2000/svg" xmlns:xlink="http://www.w3.org/1999/xlink">
    <!-- Generator: Sketch 46.2 (44496) - http://www.bohemiancoding.com/sketch -->
    <title>Shape</title>
    <desc>Created with Sketch.</desc>
    <defs></defs>
    <g id="TEZOS" stroke="none" stroke-width="1" fill="none" fill-rule="evenodd">
        <g id="Icons-2.0" transform="translate(-364.000000, -883.000000)" fill="#1D87BD">
            <path d="M374,903 C368.477143,903 364,898.522857 364,893 C364,887.477143 368.477143,883 374,883 C379.522857,883 384,887.477143 384,893 C384,898.522857 379.522857,903 374,903 L374,903 Z M369.263429,897.866857 L371.469143,897.866857 L371.469143,891.682857 L369.263429,891.682857 L369.263429,897.866857 L369.263429,897.866857 Z M370.381143,888.702857 C369.626286,888.702857 369.133143,889.164 369.133143,889.770857 C369.133143,890.364571 369.612,890.839429 370.352,890.839429 L370.366286,890.839429 C371.135429,890.839429 371.614286,890.364571 371.614286,889.770857 C371.6,889.164 371.135429,888.702857 370.381143,888.702857 L370.381143,888.702857 Z M379.422286,894.321714 C379.422286,892.421714 378.333714,891.537714 376.883429,891.537714 C375.711429,891.537714 375.188571,892.137714 374.895429,892.559429 L374.895429,891.682857 L372.689143,891.682857 C372.718286,892.264 372.689143,897.866857 372.689143,897.866857 L374.895429,897.866857 L374.895429,894.413714 C374.895429,894.229143 374.909714,894.044 374.968,893.912571 C375.126857,893.542857 375.490286,893.160571 376.099429,893.160571 C376.897714,893.160571 377.217143,893.728 377.217143,894.559429 L377.217143,897.866857 L379.422286,897.866857 L379.422286,894.321714 L379.422286,894.321714 Z M374.880571,892.58 C374.885143,892.573143 374.890857,892.565714 374.895429,892.559429 L374.895429,892.58 L374.880571,892.58 L374.880571,892.58 Z" id="Shape"></path>
        </g>
    </g>
</svg>