<svg xmlns="http://www.w3.org/2000/svg" width="188" height="35" viewBox="0 0 188 35">
    <g fill="none" fill-rule="evenodd">
        <path fill="#FEFEFE" fill-rule="nonzero" d="M3.23 23.52a6.658 6.658 0 0 1-.75-.427c-.259-.172-.5-.38-.724-.627a5.259 5.259 0 0 1-.593-.806l-.004.001a4.922 4.922 0 0 1-.657-1.76 5.93 5.93 0 0 1-.025-1.78l.125-.911.906.124 3.578.492-.023-.014c-.157-.09-.39-.22-.698-.39a7.375 7.375 0 0 1-1.533-1.124 4.752 4.752 0 0 1-.66-.79 5.298 5.298 0 0 1-.494-.93 4.04 4.04 0 0 1-.284-1.203 5.99 5.99 0 0 1 .047-1.322c.09-.653.266-1.247.527-1.78.27-.55.625-1.028 1.065-1.432a5.467 5.467 0 0 1 2.389-1.273l-.07-.01.453-3.303 4.266.607c.86.118 1.511.2 1.956.248l.698-5.074 3.1.426-.683 4.974c1.105.124 1.925.223 2.462.297l.678-4.934 3.1.426-.696 5.075c1.047.24 1.967.52 2.757.84.79.32 1.507.727 2.15 1.219a4.657 4.657 0 0 1 1.447 1.799c.32.707.46 1.508.418 2.405-.094 2.477-1.211 4.088-3.352 4.834 1.52.591 2.6 1.444 3.24 2.557.64 1.114.744 2.592.313 4.434-.225.94-.559 1.75-1 2.427-.442.678-.957 1.216-1.545 1.614-.588.398-1.293.701-2.115.91-.822.208-1.67.328-2.542.359a24.356 24.356 0 0 1-2.971-.1l-.706 5.134-3.1-.426.694-5.054a109.665 109.665 0 0 1-2.454-.358l-.697 5.074-3.101-.426.705-5.134a88.887 88.887 0 0 1-1.086-.16 95.71 95.71 0 0 0-1.106-.161l-4.028-.554.622-4.013zm5.367-9.716l.014-.104-.296-.041c.1.05.194.1.282.145zm6.108-4.736l-.85 6.182c.068.009.299.044.694.105.396.061.707.104.937.129.229.025.566.057 1.012.098.446.04.82.054 1.123.041.302-.013.658-.04 1.067-.079.409-.04.752-.119 1.028-.238.276-.12.55-.266.82-.441.27-.175.487-.409.65-.701.163-.292.27-.626.322-1.002.06-.443.03-.847-.09-1.213a2.824 2.824 0 0 0-.498-.93c-.211-.255-.507-.487-.89-.697a6.95 6.95 0 0 0-1.06-.484 11.254 11.254 0 0 0-1.217-.331 11.847 11.847 0 0 0-1.161-.21 147.35 147.35 0 0 1-1.887-.23zm6.584 14.876c.17-.292.28-.625.332-1a2.705 2.705 0 0 0-.125-1.331 3.05 3.05 0 0 0-.618-1.029c-.262-.282-.62-.54-1.074-.773a9.881 9.881 0 0 0-1.267-.554c-.392-.136-.88-.264-1.465-.385a21.757 21.757 0 0 0-1.382-.252c-.336-.046-.77-.099-1.301-.158-.533-.06-.852-.096-.96-.111l-.935 6.806c.108.015.355.052.744.112.388.06.71.108.965.143.255.035.613.074 1.072.117a14.74 14.74 0 0 0 2.361.068c.446-.021.832-.064 1.156-.13a6.894 6.894 0 0 0 1.014-.29c.353-.13.646-.295.879-.495.232-.2.433-.447.604-.738zM11.223 19.42c.141-1.028-.041-1.923-.548-2.684-.507-.76-1.186-1.382-2.037-1.863a15.24 15.24 0 0 0-.823-.44 5.52 5.52 0 0 1-.895-.56 2.977 2.977 0 0 1-.677-.715 1.25 1.25 0 0 1-.194-.889c.045-.329.19-.596.438-.802.246-.206.541-.286.884-.239.414.057.689.23.824.517.135.288.191.62.169.995l3.321.456.015-.107c.148-.97.014-1.85-.401-2.642-.415-.792-1.093-1.37-2.033-1.731l.297-2.164-2.892-.398-.298 2.164c-1.096.14-2.002.54-2.719 1.199-.716.658-1.15 1.544-1.304 2.659-.112.814-.053 1.499.177 2.054.229.556.543 1.025.942 1.407.398.382.844.71 1.338.98.494.272.95.535 1.366.789.416.253.757.53 1.021.828.265.298.367.669.306 1.111a1.264 1.264 0 0 1-.476.841c-.27.218-.576.303-.919.256-.429-.059-.72-.263-.877-.612a2.107 2.107 0 0 1-.178-1.083l-3.664-.503a5.03 5.03 0 0 0 .022 1.509c.083.506.261.982.535 1.427.308.508.656.89 1.043 1.148.387.257.844.48 1.37.668L4.06 25.16l2.892.398.31-2.25c.507-.09.987-.246 1.44-.468a4.875 4.875 0 0 0 1.204-.828 4.292 4.292 0 0 0 1.317-2.592z"/>
        <path fill="#FFF" d="M46 11.222h4.817c2.471 0 3.824.923 3.824 3.323 0 1.422-.378 2.143-1.353 2.77 1.047.462 1.588 1.238 1.588 2.863 0 2.51-1.534 3.6-3.987 3.6H46V11.222zm4.763 7.312H48.49V21.6h2.273c1.028 0 1.587-.313 1.587-1.55 0-1.035-.595-1.515-1.587-1.515zm-.072-5.133H48.49v2.991h2.219c.974 0 1.407-.517 1.407-1.514 0-1.034-.487-1.477-1.425-1.477zm7.298 10.377h2.49V11.222h-2.49v12.556zm5.061-10.304h3.284v10.304h2.49V13.474h3.246v-2.252h-9.02v2.252zm19.313 8.015c-.721.11-2.255.258-3.084.258-2.13 0-2.562-.868-2.562-4.247 0-3.564.595-4.247 2.49-4.247.811 0 2.327.148 3.156.277l.073-2.031c-.758-.185-2.31-.499-3.59-.499-3.645 0-4.69 1.736-4.69 6.5 0 4.395.901 6.5 4.69 6.5 1.118 0 2.742-.24 3.572-.425l-.055-2.086zm7.515.295c2.02 0 2.526-1.311 2.526-4.21 0-2.9-.505-4.358-2.526-4.358-2.02 0-2.525 1.459-2.525 4.358 0 2.899.505 4.21 2.525 4.21zm0 2.216c-3.86 0-5.087-2.179-5.087-6.426S86.018 11 89.878 11c3.86 0 5.088 2.327 5.088 6.574S93.739 24 89.878 24zm8.219-.222h2.49V11.222h-2.49v12.556zm6.161 0h2.49v-10.34h.18l3.067 10.34h4.095V11.222h-2.49v10.34h-.18l-2.958-10.34h-4.204v12.556zm22.607 0h-4.131V11.222h4.131c4.276 0 5.214 1.865 5.214 6.038 0 4.284-.812 6.518-5.214 6.518zm2.652-6.518c0-2.751-.234-3.823-2.652-3.823h-1.642v8.126h1.642c2.418 0 2.652-1.515 2.652-4.303zm10.275 4.524c2.02 0 2.526-1.311 2.526-4.21 0-2.9-.505-4.358-2.526-4.358-2.02 0-2.526 1.459-2.526 4.358 0 2.899.506 4.21 2.526 4.21zm0 2.216c-3.86 0-5.087-2.179-5.087-6.426S135.93 11 139.792 11c3.86 0 5.087 2.327 5.087 6.574S143.653 24 139.792 24zm15.2-.222v-2.252H150.5V11.222h-2.49v12.556h6.982zm9.517 0v-2.252h-4.492V11.222h-2.49v12.556h6.982zm1.508 0l2.76-12.556h4.727l2.76 12.556h-2.49l-.487-2.27h-4.294l-.487 2.27h-2.49zm4.69-10.451l-1.245 5.964h3.356l-1.245-5.964h-.866zm13.09 6.241h-2.4v4.21h-2.49V11.222h4.763c2.797 0 4.33 1.274 4.33 4.136 0 1.736-.686 2.9-1.804 3.62l1.75 4.8h-2.724l-1.425-4.21zm1.66-4.173c0-1.2-.596-1.994-1.787-1.994h-2.273v3.988h2.31c1.244 0 1.75-.886 1.75-1.994z"/>
    </g>
</svg>
