<svg xmlns="http://www.w3.org/2000/svg" width="82" height="86" viewBox="0 0 82 86">
    <g fill="none" fill-rule="nonzero" transform="translate(-14 -1)">
        <circle cx="60.5" cy="36" r="35" fill="#FFA001"/>
        <path fill="#233D4E" d="M39.678 18.086a8.073 8.073 0 0 0-.597-.891c14.736-4.384 31.09 1.706 39.114 15.604a33.853 33.853 0 0 1 4.238 21.644 8.04 8.04 0 0 0-3.904-.995A29.868 29.868 0 0 0 74.73 34.8c-7-12.123-21.182-17.513-34.067-13.897a7.98 7.98 0 0 0-.986-2.816zm-11.91 10.262c-9.574 9.35-11.998 24.328-4.999 36.451a29.868 29.868 0 0 0 14.252 12.614 8.04 8.04 0 0 0-1.091 3.878A33.853 33.853 0 0 1 19.305 66.8c-8.024-13.898-5.12-31.105 6.043-41.675a8.073 8.073 0 0 0 2.42 3.224zM63.75 75.78a29.892 29.892 0 0 0 9.37-8.472 8 8 0 0 0 3.547 1.912A33.87 33.87 0 0 1 65.75 79.244a33.87 33.87 0 0 1-14.14 4.443 8 8 0 0 0 .119-4.029A29.892 29.892 0 0 0 63.75 75.78zm-28.5-49.364a5 5 0 1 1-5-8.66 5 5 0 0 1 5 8.66zM46.43 85.78a5 5 0 1 1-5-8.66 5 5 0 0 1 5 8.66zm34.64-20a5 5 0 1 1-5-8.66 5 5 0 0 1 5 8.66z"/>
    </g>
</svg>
