<svg xmlns="http://www.w3.org/2000/svg" width="84" height="81" viewBox="0 0 84 81">
    <g fill="none" fill-rule="evenodd">
        <circle cx="48.5" cy="35" r="35" fill="#FFA001" fill-rule="nonzero"/>
        <g stroke="#233D4E" stroke-linecap="round" stroke-linejoin="round" stroke-width="4">
            <path d="M32 65.6C22.3 63.8 15 55.2 15 45c0-10.2 7.3-18.8 17-20.6M40 24.4c9.7 1.9 17 10.4 17 20.6 0 10.2-7.3 18.8-17 20.6"/>
            <path d="M40.7 39.6c-6.3-4.5-8.9-.1-8.5 2.3.4 2.1 3.3 2.8 4.5 3 8.6 1.2 2.9 11.4-5.7 5.1M36 35.1v2.4M36 52v3.1"/>
            <g>
                <path d="M54.5 66h8M62.5 74v-8M62.2 66.8c-.6.8-1.3 1.5-2 2.2-13.3 13.3-34.8 13.3-48.1 0-7.7-7.6-11-18-9.9-28"/>
            </g>
            <g>
                <path d="M16.5 24h-7M9.5 16v8M9.8 23.2c.6-.8 1.3-1.5 2-2.2C25.1 7.7 46.7 7.7 59.9 21c7.6 7.6 11 18.1 9.8 28"/>
            </g>
        </g>
    </g>
</svg>
