<?xml version="1.0" encoding="UTF-8"?>
<svg width="540px" height="250px" viewBox="0 0 540 250" version="1.1" xmlns="http://www.w3.org/2000/svg" xmlns:xlink="http://www.w3.org/1999/xlink">
    <!-- Generator: Sketch 46.2 (44496) - http://www.bohemiancoding.com/sketch -->
    <title>Structure</title>
    <desc>Created with Sketch.</desc>
    <defs></defs>
    <g id="Playground" stroke="none" stroke-width="1" fill="none" fill-rule="evenodd">
        <g id="Structure">
            <rect id="Rectangle-2" fill="#B5B8BD" x="171" y="0" width="200" height="50" rx="25"></rect>
            <path d="M223.372,18.67 L228.052,18.67 C230.5,18.67 231.814,19.588 231.814,21.874 C231.814,23.368 231.346,24.106 230.356,24.646 C231.418,25.06 232.12,25.816 232.12,27.508 C232.12,30.028 230.59,31 228.196,31 L223.372,31 L223.372,18.67 Z M228.052,25.618 L225.37,25.618 L225.37,29.272 L228.088,29.272 C229.33,29.272 230.068,28.876 230.068,27.4 C230.068,25.996 229.024,25.618 228.052,25.618 Z M227.944,20.398 L225.37,20.398 L225.37,23.926 L228.016,23.926 C229.24,23.926 229.78,23.314 229.78,22.108 C229.78,20.92 229.168,20.398 227.944,20.398 Z M234.154,31 L236.116,31 L236.116,22 L234.154,22 L234.154,31 Z M234.154,20.47 L236.116,20.47 L236.116,18.4 L234.154,18.4 L234.154,20.47 Z M243.334,23.674 L243.334,22 L240.85,22 L240.85,19.39 L238.906,19.39 L238.906,22 L237.754,22 L237.754,23.674 L238.906,23.674 L238.906,27.85 C238.906,30.442 239.536,31.198 241.57,31.198 C242.2,31.198 243.406,30.964 243.406,30.964 L243.316,29.398 C243.316,29.398 242.344,29.452 241.84,29.452 C240.904,29.452 240.85,28.984 240.85,27.634 L240.85,23.674 L243.334,23.674 Z M248.302,21.802 C245.62,21.802 244.54,23.152 244.54,26.374 C244.54,29.83 245.494,31.198 248.266,31.198 C249.184,31.198 251.002,30.874 251.002,30.874 L250.948,29.308 C250.948,29.308 249.526,29.452 248.842,29.452 C246.898,29.452 246.52,28.678 246.52,26.374 C246.52,24.304 246.952,23.548 248.824,23.548 C249.508,23.548 250.93,23.692 250.93,23.692 L251.002,22.144 C251.002,22.144 249.256,21.802 248.302,21.802 Z M256.474,21.802 C259.48,21.802 260.488,23.53 260.488,26.446 C260.488,29.434 259.57,31.198 256.474,31.198 C253.396,31.198 252.46,29.434 252.46,26.446 C252.46,23.53 253.468,21.802 256.474,21.802 Z M256.474,29.542 C258.148,29.542 258.508,28.534 258.508,26.446 C258.508,24.358 258.058,23.458 256.474,23.458 C254.89,23.458 254.44,24.358 254.44,26.446 C254.44,28.534 254.8,29.542 256.474,29.542 Z M262.432,31 L264.394,31 L264.394,22 L262.432,22 L262.432,31 Z M262.432,20.47 L264.394,20.47 L264.394,18.4 L262.432,18.4 L262.432,20.47 Z M268.732,31 L268.732,24.016 C268.732,24.016 269.722,23.548 270.766,23.548 C272.134,23.548 272.368,24.43 272.368,26.23 L272.368,31 L274.312,31 L274.312,26.176 C274.312,23.224 273.7,21.802 271.198,21.802 C270.028,21.802 268.714,22.558 268.714,22.558 L268.714,22 L266.77,22 L266.77,31 L268.732,31 Z M282.16,17.5 C282.16,17.5 280.144,21.46 280.144,25.582 C280.144,29.704 282.16,33.25 282.16,33.25 L284.014,33.25 C284.014,33.25 282.304,29.11 282.304,25.582 C282.304,22.054 284.014,17.5 284.014,17.5 L282.16,17.5 Z M285.994,18.67 L290.674,18.67 C293.122,18.67 294.436,19.588 294.436,21.874 C294.436,23.368 293.968,24.106 292.978,24.646 C294.04,25.06 294.742,25.816 294.742,27.508 C294.742,30.028 293.212,31 290.818,31 L285.994,31 L285.994,18.67 Z M290.674,25.618 L287.992,25.618 L287.992,29.272 L290.71,29.272 C291.952,29.272 292.69,28.876 292.69,27.4 C292.69,25.996 291.646,25.618 290.674,25.618 Z M290.566,20.398 L287.992,20.398 L287.992,23.926 L290.638,23.926 C291.862,23.926 292.402,23.314 292.402,22.108 C292.402,20.92 291.79,20.398 290.566,20.398 Z M295.822,20.452 L299.332,20.452 L299.332,31 L301.348,31 L301.348,20.452 L304.822,20.452 L304.822,18.67 L295.822,18.67 L295.822,20.452 Z M314.074,29.146 C313.3,29.272 311.86,29.416 310.942,29.416 C308.512,29.416 308.062,28.228 308.062,24.844 C308.062,21.352 308.62,20.254 310.888,20.254 C311.77,20.254 313.264,20.398 314.074,20.542 L314.146,18.922 C313.372,18.742 311.896,18.472 310.618,18.472 C306.928,18.472 305.992,20.398 305.992,24.844 C305.992,29.056 306.856,31.198 310.618,31.198 C311.77,31.198 313.282,30.982 314.128,30.802 L314.074,29.146 Z M315.406,17.5 C315.406,17.5 317.116,22.054 317.116,25.582 C317.116,29.11 315.406,33.25 315.406,33.25 L317.26,33.25 C317.26,33.25 319.276,29.704 319.276,25.582 C319.276,21.46 317.26,17.5 317.26,17.5 L315.406,17.5 Z" id="Bitcoin-(BTC)" fill="#FFFFFF"></path>
            <rect id="Rectangle-2" fill="#B5B8BD" x="51" y="200" width="200" height="50" rx="25"></rect>
            <path d="M94.629,218.886 C94.629,218.886 92.289,218.454 90.723,218.454 C88.257,218.454 86.619,219.48 86.619,221.964 C86.619,224.106 87.771,224.916 90.435,225.6 C92.325,226.05 92.883,226.41 92.883,227.454 C92.883,228.75 92.181,229.434 90.651,229.434 C89.373,229.434 86.943,229.11 86.943,229.11 L86.745,230.712 C86.745,230.712 89.175,231.198 90.777,231.198 C93.207,231.198 94.899,230.028 94.899,227.328 C94.899,225.222 93.963,224.538 91.371,223.818 C89.265,223.242 88.617,222.972 88.617,221.82 C88.617,220.758 89.391,220.218 90.903,220.218 C91.947,220.218 94.467,220.506 94.467,220.506 L94.629,218.886 Z M97.059,231 L104.835,231 L104.835,229.236 L99.057,229.236 L99.057,225.636 L103.755,225.636 L103.755,223.908 L99.057,223.908 L99.057,220.416 L104.835,220.416 L104.835,218.67 L97.059,218.67 L97.059,231 Z M112.035,226.284 L113.565,226.284 L113.565,229.29 C113.349,229.344 112.413,229.452 111.603,229.452 C109.083,229.452 108.561,228.192 108.561,224.844 C108.561,221.37 109.191,220.254 111.657,220.254 C113.295,220.254 115.473,220.542 115.473,220.542 L115.545,218.958 C115.545,218.958 113.241,218.472 111.351,218.472 C107.679,218.472 106.491,220.524 106.491,224.844 C106.491,228.93 107.499,231.198 111.423,231.198 C112.917,231.198 115.383,230.82 115.545,230.784 L115.545,224.52 L112.035,224.52 L112.035,226.284 Z M117.057,218.67 L119.469,231 L122.709,231 L124.815,221.118 L126.939,231 L130.161,231 L132.591,218.67 L130.485,218.67 L128.721,229.272 L128.325,229.272 L125.985,218.706 L123.645,218.706 L121.305,229.272 L120.927,229.272 L119.163,218.67 L117.057,218.67 Z M134.445,231 L136.443,231 L136.443,218.67 L134.445,218.67 L134.445,231 Z M138.099,220.452 L141.609,220.452 L141.609,231 L143.625,231 L143.625,220.452 L147.099,220.452 L147.099,218.67 L138.099,218.67 L138.099,220.452 Z M160.149,231 L160.149,229.254 L154.785,229.254 L157.323,226.788 C159.159,225.078 159.915,224.034 159.915,222.234 C159.915,220.002 158.709,218.922 156.081,218.922 C154.317,218.922 152.571,219.444 152.571,219.444 L152.697,221.028 C152.697,221.028 154.353,220.704 155.613,220.704 C157.143,220.704 157.845,221.136 157.845,222.486 C157.845,223.746 156.963,224.7 155.433,226.266 L152.499,229.29 L152.499,231 L160.149,231 Z M163.857,218.67 L161.607,218.67 L165.279,225.042 L161.607,231 L163.713,231 L166.413,226.356 L169.059,231 L171.291,231 L167.637,224.934 L171.291,218.67 L169.185,218.67 L166.503,223.53 L163.857,218.67 Z M178.275,217.5 C178.275,217.5 176.259,221.46 176.259,225.582 C176.259,229.704 178.275,233.25 178.275,233.25 L180.129,233.25 C180.129,233.25 178.419,229.11 178.419,225.582 C178.419,222.054 180.129,217.5 180.129,217.5 L178.275,217.5 Z M182.109,218.67 L186.789,218.67 C189.237,218.67 190.551,219.588 190.551,221.874 C190.551,223.368 190.083,224.106 189.093,224.646 C190.155,225.06 190.857,225.816 190.857,227.508 C190.857,230.028 189.327,231 186.933,231 L182.109,231 L182.109,218.67 Z M186.789,225.618 L184.107,225.618 L184.107,229.272 L186.825,229.272 C188.067,229.272 188.805,228.876 188.805,227.4 C188.805,225.996 187.761,225.618 186.789,225.618 Z M186.681,220.398 L184.107,220.398 L184.107,223.926 L186.753,223.926 C187.977,223.926 188.517,223.314 188.517,222.108 C188.517,220.92 187.905,220.398 186.681,220.398 Z M200.559,231 L200.559,229.254 L195.195,229.254 L197.733,226.788 C199.569,225.078 200.325,224.034 200.325,222.234 C200.325,220.002 199.119,218.922 196.491,218.922 C194.727,218.922 192.981,219.444 192.981,219.444 L193.107,221.028 C193.107,221.028 194.763,220.704 196.023,220.704 C197.553,220.704 198.255,221.136 198.255,222.486 C198.255,223.746 197.373,224.7 195.843,226.266 L192.909,229.29 L192.909,231 L200.559,231 Z M204.267,218.67 L202.017,218.67 L205.689,225.042 L202.017,231 L204.123,231 L206.823,226.356 L209.469,231 L211.701,231 L208.047,224.934 L211.701,218.67 L209.595,218.67 L206.913,223.53 L204.267,218.67 Z M212.493,217.5 C212.493,217.5 214.203,222.054 214.203,225.582 C214.203,229.11 212.493,233.25 212.493,233.25 L214.347,233.25 C214.347,233.25 216.363,229.704 216.363,225.582 C216.363,221.46 214.347,217.5 214.347,217.5 L212.493,217.5 Z" id="SEGWIT-2X-(B2X)" fill="#FFFFFF"></path>
            <rect id="Rectangle-2" fill="#B5B8BD" x="303" y="200" width="200" height="50" rx="25"></rect>
            <path d="M335.847,218.67 L340.527,218.67 C342.975,218.67 344.289,219.588 344.289,221.874 C344.289,223.368 343.821,224.106 342.831,224.646 C343.893,225.06 344.595,225.816 344.595,227.508 C344.595,230.028 343.065,231 340.671,231 L335.847,231 L335.847,218.67 Z M340.527,225.618 L337.845,225.618 L337.845,229.272 L340.563,229.272 C341.805,229.272 342.543,228.876 342.543,227.4 C342.543,225.996 341.499,225.618 340.527,225.618 Z M340.419,220.398 L337.845,220.398 L337.845,223.926 L340.491,223.926 C341.715,223.926 342.255,223.314 342.255,222.108 C342.255,220.92 341.643,220.398 340.419,220.398 Z M346.629,231 L348.591,231 L348.591,222 L346.629,222 L346.629,231 Z M346.629,220.47 L348.591,220.47 L348.591,218.4 L346.629,218.4 L346.629,220.47 Z M355.809,223.674 L355.809,222 L353.325,222 L353.325,219.39 L351.381,219.39 L351.381,222 L350.229,222 L350.229,223.674 L351.381,223.674 L351.381,227.85 C351.381,230.442 352.011,231.198 354.045,231.198 C354.675,231.198 355.881,230.964 355.881,230.964 L355.791,229.398 C355.791,229.398 354.819,229.452 354.315,229.452 C353.379,229.452 353.325,228.984 353.325,227.634 L353.325,223.674 L355.809,223.674 Z M360.777,221.802 C358.095,221.802 357.015,223.152 357.015,226.374 C357.015,229.83 357.969,231.198 360.741,231.198 C361.659,231.198 363.477,230.874 363.477,230.874 L363.423,229.308 C363.423,229.308 362.001,229.452 361.317,229.452 C359.373,229.452 358.995,228.678 358.995,226.374 C358.995,224.304 359.427,223.548 361.299,223.548 C361.983,223.548 363.405,223.692 363.405,223.692 L363.477,222.144 C363.477,222.144 361.731,221.802 360.777,221.802 Z M368.949,221.802 C371.955,221.802 372.963,223.53 372.963,226.446 C372.963,229.434 372.045,231.198 368.949,231.198 C365.871,231.198 364.935,229.434 364.935,226.446 C364.935,223.53 365.943,221.802 368.949,221.802 Z M368.949,229.542 C370.623,229.542 370.983,228.534 370.983,226.446 C370.983,224.358 370.533,223.458 368.949,223.458 C367.365,223.458 366.915,224.358 366.915,226.446 C366.915,228.534 367.275,229.542 368.949,229.542 Z M374.907,231 L376.869,231 L376.869,222 L374.907,222 L374.907,231 Z M374.907,220.47 L376.869,220.47 L376.869,218.4 L374.907,218.4 L374.907,220.47 Z M381.207,231 L381.207,224.016 C381.207,224.016 382.197,223.548 383.241,223.548 C384.609,223.548 384.843,224.43 384.843,226.23 L384.843,231 L386.787,231 L386.787,226.176 C386.787,223.224 386.175,221.802 383.673,221.802 C382.503,221.802 381.189,222.558 381.189,222.558 L381.189,222 L379.245,222 L379.245,231 L381.207,231 Z M398.289,226.284 L399.819,226.284 L399.819,229.29 C399.603,229.344 398.667,229.452 397.857,229.452 C395.337,229.452 394.815,228.192 394.815,224.844 C394.815,221.37 395.445,220.254 397.911,220.254 C399.549,220.254 401.727,220.542 401.727,220.542 L401.799,218.958 C401.799,218.958 399.495,218.472 397.605,218.472 C393.933,218.472 392.745,220.524 392.745,224.844 C392.745,228.93 393.753,231.198 397.677,231.198 C399.171,231.198 401.637,230.82 401.799,230.784 L401.799,224.52 L398.289,224.52 L398.289,226.284 Z M407.649,221.802 C410.655,221.802 411.663,223.53 411.663,226.446 C411.663,229.434 410.745,231.198 407.649,231.198 C404.571,231.198 403.635,229.434 403.635,226.446 C403.635,223.53 404.643,221.802 407.649,221.802 Z M407.649,229.542 C409.323,229.542 409.683,228.534 409.683,226.446 C409.683,224.358 409.233,223.458 407.649,223.458 C406.065,223.458 405.615,224.358 405.615,226.446 C405.615,228.534 405.975,229.542 407.649,229.542 Z M413.715,231 L415.677,231 L415.677,218.256 L413.715,218.256 L413.715,231 Z M425.505,218.256 L425.505,231 L423.561,231 L423.561,230.532 C423.561,230.532 422.247,231.198 421.149,231.198 C418.845,231.198 417.747,229.992 417.747,226.518 C417.747,223.26 418.917,221.802 421.491,221.802 C422.211,221.802 423.435,222.018 423.543,222.036 L423.543,218.256 L425.505,218.256 Z M421.455,229.452 C422.481,229.452 423.543,229.002 423.543,229.002 L423.543,223.674 C423.435,223.656 422.391,223.494 421.635,223.494 C420.303,223.494 419.727,224.466 419.727,226.518 C419.727,228.822 420.357,229.452 421.455,229.452 Z M433.443,217.5 C433.443,217.5 431.427,221.46 431.427,225.582 C431.427,229.704 433.443,233.25 433.443,233.25 L435.297,233.25 C435.297,233.25 433.587,229.11 433.587,225.582 C433.587,222.054 435.297,217.5 435.297,217.5 L433.443,217.5 Z M437.277,218.67 L441.957,218.67 C444.405,218.67 445.719,219.588 445.719,221.874 C445.719,223.368 445.251,224.106 444.261,224.646 C445.323,225.06 446.025,225.816 446.025,227.508 C446.025,230.028 444.495,231 442.101,231 L437.277,231 L437.277,218.67 Z M441.957,225.618 L439.275,225.618 L439.275,229.272 L441.993,229.272 C443.235,229.272 443.973,228.876 443.973,227.4 C443.973,225.996 442.929,225.618 441.957,225.618 Z M441.849,220.398 L439.275,220.398 L439.275,223.926 L441.921,223.926 C443.145,223.926 443.685,223.314 443.685,222.108 C443.685,220.92 443.073,220.398 441.849,220.398 Z M447.105,220.452 L450.615,220.452 L450.615,231 L452.631,231 L452.631,220.452 L456.105,220.452 L456.105,218.67 L447.105,218.67 L447.105,220.452 Z M462.783,226.284 L464.313,226.284 L464.313,229.29 C464.097,229.344 463.161,229.452 462.351,229.452 C459.831,229.452 459.309,228.192 459.309,224.844 C459.309,221.37 459.939,220.254 462.405,220.254 C464.043,220.254 466.221,220.542 466.221,220.542 L466.293,218.958 C466.293,218.958 463.989,218.472 462.099,218.472 C458.427,218.472 457.239,220.524 457.239,224.844 C457.239,228.93 458.247,231.198 462.171,231.198 C463.665,231.198 466.131,230.82 466.293,230.784 L466.293,224.52 L462.783,224.52 L462.783,226.284 Z M467.931,217.5 C467.931,217.5 469.641,222.054 469.641,225.582 C469.641,229.11 467.931,233.25 467.931,233.25 L469.785,233.25 C469.785,233.25 471.801,229.704 471.801,225.582 C471.801,221.46 469.785,217.5 469.785,217.5 L467.931,217.5 Z" id="Bitcoin-Gold-(BTG)" fill="#FFFFFF"></path>
            <polygon id="Line-3" fill="#979797" fill-rule="nonzero" points="151 171.881066 404 171.881066 404 171 151 171"></polygon>
            <polygon id="Line-3" fill="#979797" fill-rule="nonzero" points="100 77 440 77 440 76 100 76"></polygon>
            <path d="M100.5,76.5 L100.5,103.518512" id="Line-4" stroke="#979797" stroke-linecap="square"></path>
            <path d="M271.5,48.5 L271.5,170.90915" id="Line-4" stroke="#979797" stroke-linecap="square"></path>
            <path d="M151.5,172.5 L151.5,199.518512" id="Line-4" stroke="#979797" stroke-linecap="square"></path>
            <path d="M403.5,172.5 L403.5,199.518512" id="Line-4" stroke="#979797" stroke-linecap="square"></path>
            <path d="M440.5,76.5 L440.5,103.518512" id="Line-4" stroke="#979797" stroke-linecap="square"></path>
            <rect id="Rectangle-2" fill="#B5B8BD" x="0" y="100" width="200" height="50" rx="25"></rect>
            <path d="M32.928,117.67 L37.608,117.67 C40.056,117.67 41.37,118.588 41.37,120.874 C41.37,122.368 40.902,123.106 39.912,123.646 C40.974,124.06 41.676,124.816 41.676,126.508 C41.676,129.028 40.146,130 37.752,130 L32.928,130 L32.928,117.67 Z M37.608,124.618 L34.926,124.618 L34.926,128.272 L37.644,128.272 C38.886,128.272 39.624,127.876 39.624,126.4 C39.624,124.996 38.58,124.618 37.608,124.618 Z M37.5,119.398 L34.926,119.398 L34.926,122.926 L37.572,122.926 C38.796,122.926 39.336,122.314 39.336,121.108 C39.336,119.92 38.724,119.398 37.5,119.398 Z M43.71,130 L45.672,130 L45.672,121 L43.71,121 L43.71,130 Z M43.71,119.47 L45.672,119.47 L45.672,117.4 L43.71,117.4 L43.71,119.47 Z M52.89,122.674 L52.89,121 L50.406,121 L50.406,118.39 L48.462,118.39 L48.462,121 L47.31,121 L47.31,122.674 L48.462,122.674 L48.462,126.85 C48.462,129.442 49.092,130.198 51.126,130.198 C51.756,130.198 52.962,129.964 52.962,129.964 L52.872,128.398 C52.872,128.398 51.9,128.452 51.396,128.452 C50.46,128.452 50.406,127.984 50.406,126.634 L50.406,122.674 L52.89,122.674 Z M57.858,120.802 C55.176,120.802 54.096,122.152 54.096,125.374 C54.096,128.83 55.05,130.198 57.822,130.198 C58.74,130.198 60.558,129.874 60.558,129.874 L60.504,128.308 C60.504,128.308 59.082,128.452 58.398,128.452 C56.454,128.452 56.076,127.678 56.076,125.374 C56.076,123.304 56.508,122.548 58.38,122.548 C59.064,122.548 60.486,122.692 60.486,122.692 L60.558,121.144 C60.558,121.144 58.812,120.802 57.858,120.802 Z M66.03,120.802 C69.036,120.802 70.044,122.53 70.044,125.446 C70.044,128.434 69.126,130.198 66.03,130.198 C62.952,130.198 62.016,128.434 62.016,125.446 C62.016,122.53 63.024,120.802 66.03,120.802 Z M66.03,128.542 C67.704,128.542 68.064,127.534 68.064,125.446 C68.064,123.358 67.614,122.458 66.03,122.458 C64.446,122.458 63.996,123.358 63.996,125.446 C63.996,127.534 64.356,128.542 66.03,128.542 Z M71.988,130 L73.95,130 L73.95,121 L71.988,121 L71.988,130 Z M71.988,119.47 L73.95,119.47 L73.95,117.4 L71.988,117.4 L71.988,119.47 Z M78.288,130 L78.288,123.016 C78.288,123.016 79.278,122.548 80.322,122.548 C81.69,122.548 81.924,123.43 81.924,125.23 L81.924,130 L83.868,130 L83.868,125.176 C83.868,122.224 83.256,120.802 80.754,120.802 C79.584,120.802 78.27,121.558 78.27,121.558 L78.27,121 L76.326,121 L76.326,130 L78.288,130 Z M97.944,128.146 C97.17,128.272 95.73,128.416 94.812,128.416 C92.382,128.416 91.932,127.228 91.932,123.844 C91.932,120.352 92.49,119.254 94.758,119.254 C95.64,119.254 97.134,119.398 97.944,119.542 L98.016,117.922 C97.242,117.742 95.766,117.472 94.488,117.472 C90.798,117.472 89.862,119.398 89.862,123.844 C89.862,128.056 90.726,130.198 94.488,130.198 C95.64,130.198 97.152,129.982 97.998,129.802 L97.944,128.146 Z M106.566,123.772 L106.566,127.876 C106.602,128.416 106.836,128.632 107.358,128.704 L107.304,130.198 C106.206,130.198 105.576,130.054 104.91,129.532 C104.91,129.532 103.47,130.198 102.012,130.198 C100.23,130.198 99.33,129.208 99.33,127.336 C99.33,125.428 100.374,124.78 102.3,124.618 L104.622,124.42 L104.622,123.772 C104.622,122.782 104.19,122.476 103.308,122.476 C102.102,122.476 99.924,122.656 99.924,122.656 L99.852,121.27 C99.852,121.27 101.814,120.802 103.47,120.802 C105.666,120.802 106.566,121.72 106.566,123.772 Z M104.622,125.806 L102.534,126.004 C101.706,126.076 101.292,126.472 101.292,127.282 C101.292,128.092 101.634,128.596 102.39,128.596 C103.416,128.596 104.622,128.2 104.622,128.2 L104.622,125.806 Z M115.314,121.216 C115.314,121.216 113.244,120.82 111.93,120.82 C110.148,120.82 108.564,121.576 108.564,123.61 C108.564,125.518 109.572,125.95 111.552,126.274 C113.334,126.562 113.64,126.76 113.64,127.39 C113.64,128.182 113.136,128.452 111.84,128.452 C110.922,128.452 108.762,128.164 108.762,128.164 L108.69,129.802 C108.69,129.802 110.778,130.198 112.02,130.198 C114.252,130.198 115.584,129.442 115.584,127.336 C115.584,125.536 114.81,124.996 112.65,124.618 C110.886,124.312 110.508,124.15 110.508,123.556 C110.508,122.818 110.994,122.566 112.074,122.566 C113.154,122.566 115.278,122.854 115.278,122.854 L115.314,121.216 Z M119.436,130 L119.436,122.944 C119.436,122.944 120.462,122.548 121.452,122.548 C122.838,122.548 123.054,123.43 123.054,125.23 L123.054,130 L125.016,130 L125.016,125.176 C125.016,122.224 124.404,120.802 121.902,120.802 C120.768,120.802 119.436,121.468 119.436,121.468 L119.436,117.256 L117.474,117.256 L117.474,130 L119.436,130 Z M128.904,116.5 C128.904,116.5 126.888,120.46 126.888,124.582 C126.888,128.704 128.904,132.25 128.904,132.25 L130.758,132.25 C130.758,132.25 129.048,128.11 129.048,124.582 C129.048,121.054 130.758,116.5 130.758,116.5 L128.904,116.5 Z M132.738,117.67 L137.418,117.67 C139.866,117.67 141.18,118.588 141.18,120.874 C141.18,122.368 140.712,123.106 139.722,123.646 C140.784,124.06 141.486,124.816 141.486,126.508 C141.486,129.028 139.956,130 137.562,130 L132.738,130 L132.738,117.67 Z M137.418,124.618 L134.736,124.618 L134.736,128.272 L137.454,128.272 C138.696,128.272 139.434,127.876 139.434,126.4 C139.434,124.996 138.39,124.618 137.418,124.618 Z M137.31,119.398 L134.736,119.398 L134.736,122.926 L137.382,122.926 C138.606,122.926 139.146,122.314 139.146,121.108 C139.146,119.92 138.534,119.398 137.31,119.398 Z M151.35,128.146 C150.576,128.272 149.136,128.416 148.218,128.416 C145.788,128.416 145.338,127.228 145.338,123.844 C145.338,120.352 145.896,119.254 148.164,119.254 C149.046,119.254 150.54,119.398 151.35,119.542 L151.422,117.922 C150.648,117.742 149.172,117.472 147.894,117.472 C144.204,117.472 143.268,119.398 143.268,123.844 C143.268,128.056 144.132,130.198 147.894,130.198 C149.046,130.198 150.558,129.982 151.404,129.802 L151.35,128.146 Z M160.872,130 L162.888,130 L162.888,117.67 L160.872,117.67 L160.872,122.926 L155.544,122.926 L155.544,117.67 L153.546,117.67 L153.546,130 L155.544,130 L155.544,124.672 L160.872,124.672 L160.872,130 Z M164.85,116.5 C164.85,116.5 166.56,121.054 166.56,124.582 C166.56,128.11 164.85,132.25 164.85,132.25 L166.704,132.25 C166.704,132.25 168.72,128.704 168.72,124.582 C168.72,120.46 166.704,116.5 166.704,116.5 L164.85,116.5 Z" id="Bitcoin-Cash(BCH)" fill="#FFFFFF"></path>
            <rect id="Rectangle-2" fill="#FFB500" x="340" y="100" width="200" height="50" rx="25"></rect>
            <path d="M369.094,118.67 L373.774,118.67 C376.222,118.67 377.536,119.588 377.536,121.874 C377.536,123.368 377.068,124.106 376.078,124.646 C377.14,125.06 377.842,125.816 377.842,127.508 C377.842,130.028 376.312,131 373.918,131 L369.094,131 L369.094,118.67 Z M373.774,125.618 L371.092,125.618 L371.092,129.272 L373.81,129.272 C375.052,129.272 375.79,128.876 375.79,127.4 C375.79,125.996 374.746,125.618 373.774,125.618 Z M373.666,120.398 L371.092,120.398 L371.092,123.926 L373.738,123.926 C374.962,123.926 375.502,123.314 375.502,122.108 C375.502,120.92 374.89,120.398 373.666,120.398 Z M379.876,131 L381.838,131 L381.838,122 L379.876,122 L379.876,131 Z M379.876,120.47 L381.838,120.47 L381.838,118.4 L379.876,118.4 L379.876,120.47 Z M389.056,123.674 L389.056,122 L386.572,122 L386.572,119.39 L384.628,119.39 L384.628,122 L383.476,122 L383.476,123.674 L384.628,123.674 L384.628,127.85 C384.628,130.442 385.258,131.198 387.292,131.198 C387.922,131.198 389.128,130.964 389.128,130.964 L389.038,129.398 C389.038,129.398 388.066,129.452 387.562,129.452 C386.626,129.452 386.572,128.984 386.572,127.634 L386.572,123.674 L389.056,123.674 Z M394.024,121.802 C391.342,121.802 390.262,123.152 390.262,126.374 C390.262,129.83 391.216,131.198 393.988,131.198 C394.906,131.198 396.724,130.874 396.724,130.874 L396.67,129.308 C396.67,129.308 395.248,129.452 394.564,129.452 C392.62,129.452 392.242,128.678 392.242,126.374 C392.242,124.304 392.674,123.548 394.546,123.548 C395.23,123.548 396.652,123.692 396.652,123.692 L396.724,122.144 C396.724,122.144 394.978,121.802 394.024,121.802 Z M402.196,121.802 C405.202,121.802 406.21,123.53 406.21,126.446 C406.21,129.434 405.292,131.198 402.196,131.198 C399.118,131.198 398.182,129.434 398.182,126.446 C398.182,123.53 399.19,121.802 402.196,121.802 Z M402.196,129.542 C403.87,129.542 404.23,128.534 404.23,126.446 C404.23,124.358 403.78,123.458 402.196,123.458 C400.612,123.458 400.162,124.358 400.162,126.446 C400.162,128.534 400.522,129.542 402.196,129.542 Z M408.154,131 L410.116,131 L410.116,122 L408.154,122 L408.154,131 Z M408.154,120.47 L410.116,120.47 L410.116,118.4 L408.154,118.4 L408.154,120.47 Z M414.454,131 L414.454,124.016 C414.454,124.016 415.444,123.548 416.488,123.548 C417.856,123.548 418.09,124.43 418.09,126.23 L418.09,131 L420.034,131 L420.034,126.176 C420.034,123.224 419.422,121.802 416.92,121.802 C415.75,121.802 414.436,122.558 414.436,122.558 L414.436,122 L412.492,122 L412.492,131 L414.454,131 Z M430.78,131 L426.514,131 L426.514,118.67 L430.78,118.67 C434.758,118.67 435.712,120.794 435.712,124.628 C435.712,128.534 434.848,131 430.78,131 Z M433.642,124.628 C433.642,121.928 433.264,120.416 430.78,120.416 L428.512,120.416 L428.512,129.236 L430.78,129.236 C433.264,129.236 433.642,127.328 433.642,124.628 Z M441.4,121.802 C444.406,121.802 445.414,123.53 445.414,126.446 C445.414,129.434 444.496,131.198 441.4,131.198 C438.322,131.198 437.386,129.434 437.386,126.446 C437.386,123.53 438.394,121.802 441.4,121.802 Z M441.4,129.542 C443.074,129.542 443.434,128.534 443.434,126.446 C443.434,124.358 442.984,123.458 441.4,123.458 C439.816,123.458 439.366,124.358 439.366,126.446 C439.366,128.534 439.726,129.542 441.4,129.542 Z M447.466,131 L449.428,131 L449.428,118.256 L447.466,118.256 L447.466,131 Z M452.02,131 L453.982,131 L453.982,118.256 L452.02,118.256 L452.02,131 Z M463.126,124.772 L463.126,128.876 C463.162,129.416 463.396,129.632 463.918,129.704 L463.864,131.198 C462.766,131.198 462.136,131.054 461.47,130.532 C461.47,130.532 460.03,131.198 458.572,131.198 C456.79,131.198 455.89,130.208 455.89,128.336 C455.89,126.428 456.934,125.78 458.86,125.618 L461.182,125.42 L461.182,124.772 C461.182,123.782 460.75,123.476 459.868,123.476 C458.662,123.476 456.484,123.656 456.484,123.656 L456.412,122.27 C456.412,122.27 458.374,121.802 460.03,121.802 C462.226,121.802 463.126,122.72 463.126,124.772 Z M461.182,126.806 L459.094,127.004 C458.266,127.076 457.852,127.472 457.852,128.282 C457.852,129.092 458.194,129.596 458.95,129.596 C459.976,129.596 461.182,129.2 461.182,129.2 L461.182,126.806 Z M465.592,131 L467.554,131 L467.554,124.718 C467.554,124.718 468.958,124.088 470.596,123.764 L470.596,121.802 C469.066,122.09 467.536,123.08 467.536,123.08 L467.536,122 L465.592,122 L465.592,131 Z M473.692,117.5 C473.692,117.5 471.676,121.46 471.676,125.582 C471.676,129.704 473.692,133.25 473.692,133.25 L475.546,133.25 C475.546,133.25 473.836,129.11 473.836,125.582 C473.836,122.054 475.546,117.5 475.546,117.5 L473.692,117.5 Z M477.526,118.67 L482.206,118.67 C484.654,118.67 485.968,119.588 485.968,121.874 C485.968,123.368 485.5,124.106 484.51,124.646 C485.572,125.06 486.274,125.816 486.274,127.508 C486.274,130.028 484.744,131 482.35,131 L477.526,131 L477.526,118.67 Z M482.206,125.618 L479.524,125.618 L479.524,129.272 L482.242,129.272 C483.484,129.272 484.222,128.876 484.222,127.4 C484.222,125.996 483.178,125.618 482.206,125.618 Z M482.098,120.398 L479.524,120.398 L479.524,123.926 L482.17,123.926 C483.394,123.926 483.934,123.314 483.934,122.108 C483.934,120.92 483.322,120.398 482.098,120.398 Z M487.354,120.452 L490.864,120.452 L490.864,131 L492.88,131 L492.88,120.452 L496.354,120.452 L496.354,118.67 L487.354,118.67 L487.354,120.452 Z M502.276,131 L498.01,131 L498.01,118.67 L502.276,118.67 C506.254,118.67 507.208,120.794 507.208,124.628 C507.208,128.534 506.344,131 502.276,131 Z M505.138,124.628 C505.138,121.928 504.76,120.416 502.276,120.416 L500.008,120.416 L500.008,129.236 L502.276,129.236 C504.76,129.236 505.138,127.328 505.138,124.628 Z M508.684,117.5 C508.684,117.5 510.394,122.054 510.394,125.582 C510.394,129.11 508.684,133.25 508.684,133.25 L510.538,133.25 C510.538,133.25 512.554,129.704 512.554,125.582 C512.554,121.46 510.538,117.5 510.538,117.5 L508.684,117.5 Z" id="Bitcoin-Dollar(BTD)" fill="#FFFFFF"></path>
        </g>
    </g>
</svg>