<svg xmlns="http://www.w3.org/2000/svg" width="15" height="17" viewBox="0 0 15 17">
    <path fill="#FFF" fill-rule="nonzero" d="M0 16.002c0-.076.015-.147.042-.213a7.616 7.616 0 0 1 4.862-5.802 5.333 5.333 0 0 1-2.72-4.654C2.183 2.388 4.563 0 7.5 0c2.937 0 5.317 2.388 5.317 5.335 0 2-1.098 3.74-2.72 4.654a7.613 7.613 0 0 1 4.868 5.84.53.53 0 0 1 .025.127c.002.016.007.033.01.048h-.005a.574.574 0 0 1-1.146 0h-.002c-.54-3.031-3.173-5.335-6.349-5.335S1.69 12.973 1.15 16.004h-.007a.573.573 0 0 1-.572.573.573.573 0 0 1-.571-.575c0 .002 0 .002 0 0zM11.677 5.335A4.185 4.185 0 0 0 7.5 1.143a4.185 4.185 0 0 0-4.177 4.192c0 2.314 1.87 4.19 4.175 4.19h.004a4.183 4.183 0 0 0 4.175-4.19z"/>
</svg>
