<svg xmlns="http://www.w3.org/2000/svg" width="50" height="40" viewBox="0 0 50 40">
    <g fill="none" fill-rule="evenodd">
        <path fill="#6772E5" d="M0 0h50v40H0z"/>
        <path fill="#FFF" d="M31 24.75v-6c-.167.188-.346.36-.54.516a109.433 109.433 0 0 0-3.327 2.64c-.266.224-.482.399-.649.524a3.61 3.61 0 0 1-.675.379 1.96 1.96 0 0 1-.801.191h-.016a1.96 1.96 0 0 1-.8-.191 3.61 3.61 0 0 1-.676-.38c-.167-.124-.383-.299-.649-.523a109.433 109.433 0 0 0-3.328-2.64A4.578 4.578 0 0 1 19 18.75v6a.24.24 0 0 0 .074.176.24.24 0 0 0 .176.074h11.5a.24.24 0 0 0 .176-.074.24.24 0 0 0 .074-.176zm0-8.21v-.192c0-.024-.001-.058-.004-.102a.214.214 0 0 0-.023-.098 4.572 4.572 0 0 1-.043-.07.143.143 0 0 0-.07-.058.283.283 0 0 0-.11-.02h-11.5a.24.24 0 0 0-.176.074.24.24 0 0 0-.074.176c0 .875.383 1.615 1.148 2.219 1.006.791 2.05 1.617 3.133 2.476l.274.23c.15.128.27.226.36.294.088.067.203.15.347.246.143.096.274.168.394.215.12.047.232.07.336.07h.016a.925.925 0 0 0 .336-.07 2.08 2.08 0 0 0 .394-.215c.144-.097.26-.179.348-.246.088-.068.208-.166.36-.293.15-.128.241-.205.273-.23 1.083-.86 2.127-1.686 3.133-2.477.28-.224.543-.525.785-.903.242-.377.363-.72.363-1.027zm1-.29v8.5c0 .344-.122.638-.367.883s-.54.367-.883.367h-11.5c-.344 0-.638-.122-.883-.367A1.204 1.204 0 0 1 18 24.75v-8.5c0-.344.122-.638.367-.883s.54-.367.883-.367h11.5c.344 0 .638.122.883.367s.367.54.367.883z"/>
    </g>
</svg>
