<svg xmlns="http://www.w3.org/2000/svg" width="50" height="40" viewBox="0 0 50 40">
    <g fill="none" fill-rule="evenodd">
        <path fill="#4FA4DB" d="M0 0h50v40H0z"/>
        <path fill="#FFF" fill-rule="nonzero" d="M31.745 13.052l-14.41 5.615a.525.525 0 0 0 .042.994l3.661 1.081 1.367 4.337a.629.629 0 0 0 1.05.25l1.892-1.933 3.715 2.727a.775.775 0 0 0 1.217-.466l2.46-11.763a.741.741 0 0 0-.994-.842zm-1.807 2.61l-6.693 5.92a.36.36 0 0 0-.12.228l-.257 2.291c-.008.075-.113.085-.135.013l-1.06-3.416a.36.36 0 0 1 .153-.413l7.905-4.902c.181-.113.368.138.207.28z"/>
    </g>
</svg>
